<svg width="60" height="35" viewBox="0 0 60 35" fill="none" xmlns="http://www.w3.org/2000/svg">
<g clip-path="url(#clip0_14_162)">
<g clip-path="url(#clip1_14_162)">
<path d="M7.71627 3.17651H2C0.89543 3.17651 0 4.07194 0 5.17651V32.7544C0 33.859 0.89543 34.7544 2 34.7544H7.71627C8.82084 34.7544 9.71627 33.859 9.71627 32.7544V5.17651C9.71627 4.07194 8.82084 3.17651 7.71627 3.17651Z" fill="#0E1628"/>
<path d="M37.1751 3.17627H8.35156C7.24699 3.17627 6.35156 4.0717 6.35156 5.17627V32.941C6.35156 34.0455 7.24699 34.941 8.35156 34.941H37.1751C38.2796 34.941 39.1751 34.0455 39.1751 32.941V5.17627C39.1751 4.0717 38.2796 3.17627 37.1751 3.17627Z" fill="#D5DFF0"/>
<path d="M18 3.17627H26.0969V13.3216C26.0969 14.4262 25.2015 15.3216 24.0969 15.3216H20C18.8954 15.3216 18 14.4262 18 13.3216V3.17627Z" fill="white"/>
<path d="M16.0031 27.4673H9.90625C9.35397 27.4673 8.90625 27.915 8.90625 28.4673V31.3254C8.90625 31.8777 9.35397 32.3254 9.90625 32.3254H16.0031C16.5554 32.3254 17.0031 31.8777 17.0031 31.3254V28.4673C17.0031 27.915 16.5554 27.4673 16.0031 27.4673Z" fill="white"/>
<path d="M32.8236 10.5884C32.8236 16.4361 37.5641 21.1766 43.4118 21.1766C49.2595 21.1766 54 16.4361 54 10.5884C54 4.74074 49.2595 0.000244141 43.4118 0.000244141C37.5641 0.000244141 32.8236 4.74074 32.8236 10.5884Z" fill="#30CB65"/>
<mask id="mask0_14_162" style="mask-type:luminance" maskUnits="userSpaceOnUse" x="38" y="5" width="11" height="11">
<path d="M48.7054 5.29419H38.1172V15.8824H48.7054V5.29419Z" fill="white"/>
</mask>
<g mask="url(#mask0_14_162)">
<path d="M39.0703 11.2086L41.551 13.6893L47.7528 7.48755" stroke="white" stroke-width="1.5" stroke-linecap="round" stroke-linejoin="round"/>
</g>
</g>
</g>
<defs>
<clipPath id="clip0_14_162">
<rect width="54" height="35" fill="white"/>
</clipPath>
<clipPath id="clip1_14_162">
<rect width="54" height="35" fill="white"/>
</clipPath>
</defs>
</svg>
