<svg width="212" height="48" viewBox="0 0 212 48" fill="none" xmlns="http://www.w3.org/2000/svg">
<path d="M42.3666 0.580524C42.3666 0.655829 42.3666 0.731135 42.3666 0.808723C42.4671 0.805744 42.4671 0.805744 42.5696 0.802706C43.3388 0.790058 44.0739 0.86723 44.834 0.979872C44.9486 0.996198 45.0632 1.01252 45.1812 1.02934C45.4602 1.0692 45.739 1.10977 46.0178 1.15102C46.0178 1.22633 46.0178 1.30163 46.0178 1.37922C46.0817 1.38899 46.1455 1.39876 46.2114 1.40883C46.5011 1.45333 46.7907 1.49828 47.0803 1.54324C47.1809 1.55861 47.2814 1.57398 47.385 1.58981C47.4817 1.60489 47.5784 1.61997 47.678 1.6355C47.7671 1.64924 47.8561 1.66298 47.9478 1.67714C48.1857 1.72152 48.1857 1.72152 48.528 1.83562C48.528 1.91092 48.528 1.98623 48.528 2.06382C48.6092 2.05749 48.6904 2.05117 48.774 2.04465C49.164 2.06769 49.384 2.18392 49.726 2.37046C50.3398 2.69172 50.9595 2.94443 51.6082 3.18565C52.0439 3.35505 52.4509 3.55672 52.8638 3.77531C52.8638 3.88827 52.8638 4.00122 52.8638 4.11761C52.926 4.13437 52.9882 4.15114 53.0523 4.16842C53.77 4.38189 54.3114 4.7126 54.9175 5.1445C55.1002 5.26628 55.2832 5.38752 55.4667 5.50819C55.6267 5.61401 55.786 5.72094 55.9444 5.8291C56.0296 5.88514 56.1148 5.94117 56.2025 5.99891C56.268 6.05583 56.3334 6.11275 56.4008 6.1714C56.4008 6.28436 56.4008 6.39731 56.4008 6.5137C56.4761 6.5137 56.5515 6.5137 56.629 6.5137C56.629 6.589 56.629 6.66431 56.629 6.74189C56.6973 6.75366 56.7655 6.76543 56.8358 6.77755C57.1259 6.8687 57.2194 6.98158 57.4277 7.19829C57.5172 7.24771 57.6066 7.29713 57.6987 7.34805C58.0703 7.58694 58.2902 7.88402 58.5687 8.22519C58.6582 8.29579 58.7476 8.36638 58.8397 8.43912C59.4339 8.92013 59.9034 9.44244 60.1661 10.1649C60.2791 10.2025 60.392 10.2402 60.5084 10.279C60.5084 10.3919 60.5084 10.5049 60.5084 10.6213C60.659 10.6966 60.8097 10.7719 60.9648 10.8495C60.9648 10.9248 60.9648 11.0001 60.9648 11.0777C61.0342 11.1053 61.1037 11.133 61.1752 11.1615C61.4732 11.3364 61.5524 11.4847 61.7065 11.7908C61.9304 12.2194 62.1754 12.6174 62.4481 13.0174C62.7503 13.4707 62.9386 13.9447 63.1345 14.4503C63.2523 14.7531 63.2523 14.7531 63.4465 15.1282C63.5891 15.4135 63.5891 15.4135 63.5891 15.6417C63.6644 15.6417 63.7397 15.6417 63.8173 15.6417C63.8934 15.8318 63.9694 16.022 64.0455 16.2121C64.0832 16.2992 64.1208 16.3863 64.1596 16.476C64.4581 17.2782 64.6085 18.146 64.7972 18.9802C64.8639 19.3991 64.8639 19.3991 65.0724 19.7492C65.3199 20.9928 65.333 22.2377 65.3241 23.5008C65.322 23.8069 65.3217 24.113 65.3218 24.4191C65.3158 27.5423 65.3158 27.5423 64.9583 28.0785C64.908 28.2932 64.8658 28.5099 64.8299 28.7274C64.8108 28.8408 64.7917 28.9542 64.772 29.0711C64.7582 29.1577 64.7443 29.2443 64.7301 29.3336C64.6548 29.3336 64.5795 29.3336 64.5019 29.3336C64.4925 29.4795 64.4831 29.6254 64.4734 29.7757C64.4153 30.304 64.2584 30.7419 64.0491 31.2278C63.9463 31.4668 63.8588 31.7049 63.7745 31.9507C63.5888 32.4573 63.3215 32.9155 63.0534 33.3823C62.922 33.6356 62.8438 33.8474 62.7904 34.1258C62.7151 34.1258 62.6398 34.1258 62.5622 34.1258C62.5446 34.2352 62.5446 34.2352 62.5266 34.3468C62.5007 34.4245 62.4748 34.5021 62.4481 34.5822C62.3352 34.6198 62.2222 34.6575 62.1058 34.6963C61.9789 34.8994 61.9789 34.8994 61.8776 35.1527C61.7856 35.3503 61.6929 35.5476 61.5995 35.7445C61.5526 35.845 61.5057 35.9455 61.4573 36.049C61.3071 36.2937 61.3071 36.2937 60.9648 36.4078C60.8838 36.5573 60.8086 36.71 60.7366 36.8642C59.8715 38.0336 58.9109 39.1313 57.7772 40.0447C57.3875 40.3615 57.0254 40.6744 56.7146 41.0716C56.4244 41.4382 56.1161 41.5952 55.6931 41.7829C55.4686 41.8799 55.4686 41.8799 55.2741 42.1056C55.015 42.3571 54.7934 42.4658 54.4683 42.619C53.988 42.848 53.6926 43.0999 53.3202 43.4819C52.2979 44.1509 51.1431 44.6045 49.9859 44.9768C49.486 45.1385 48.9957 45.3214 48.511 45.5241C47.1727 46.0799 45.8625 46.4826 44.4217 46.6357C44.0731 46.6656 44.0731 46.6656 43.7358 46.7908C43.4696 46.7953 43.2033 46.7958 42.9371 46.7908C42.8995 46.9038 42.8618 47.0167 42.823 47.1331C41.9462 47.1358 41.0693 47.1378 40.1925 47.139C39.7853 47.1396 39.378 47.1404 38.9708 47.1417C38.5772 47.143 38.1837 47.1436 37.7901 47.1439C37.5681 47.1442 37.3462 47.1451 37.1242 47.146C36.4264 47.1461 35.754 47.1278 35.0642 47.019C35.0642 46.9437 35.0642 46.8684 35.0642 46.7908C34.9832 46.7921 34.9022 46.7934 34.8187 46.7948C34.6614 46.7964 34.6614 46.7964 34.5009 46.7979C34.3963 46.7993 34.2917 46.8006 34.184 46.8019C33.9233 46.7908 33.9232 46.7908 33.8092 46.6767C33.5044 46.6149 33.1983 46.5666 32.8915 46.5167C32.5541 46.4485 32.5541 46.4485 32.2376 46.3366C31.6738 46.1585 31.0946 46.1004 30.509 46.0287C29.8684 45.9387 29.4494 45.7667 28.9029 45.4216C28.7362 45.3499 28.5677 45.282 28.3966 45.2219C28.2624 45.1749 28.1283 45.1278 27.9901 45.0793C27.9901 45.004 27.9901 44.9287 27.9901 44.8511C27.8915 44.838 27.793 44.8249 27.6915 44.8114C27.2986 44.7357 26.9734 44.617 26.6066 44.4589C26.491 44.4096 26.3754 44.3604 26.2563 44.3096C25.9935 44.1921 25.7358 44.0699 25.4799 43.9383C25.4799 43.863 25.4799 43.7877 25.4799 43.7101C25.3811 43.6819 25.2822 43.6536 25.1804 43.6245C24.7728 43.4736 24.4688 43.2693 24.1107 43.0255C24.0166 42.9879 23.9224 42.9502 23.8254 42.9114C23.3904 42.7374 23.003 42.4942 22.6773 42.1555C22.519 41.9806 22.519 41.9806 22.2717 41.9246C21.7894 41.6985 21.4578 41.3418 21.0799 40.9717C20.9305 40.8262 20.7806 40.6812 20.6302 40.5367C20.5645 40.4725 20.4989 40.4082 20.4312 40.342C20.2236 40.1665 20.0221 40.0559 19.7749 39.9448C19.7749 39.8319 19.7749 39.7189 19.7749 39.6025C19.6878 39.5719 19.6008 39.5414 19.5111 39.5098C19.2153 39.3791 19.056 39.2871 18.8621 39.032C18.8621 38.9191 18.8621 38.8061 18.8621 38.6897C18.7971 38.663 18.7321 38.6362 18.6651 38.6086C17.7843 38.1092 17.0319 36.9845 16.5231 36.1154C16.3188 35.7834 16.0751 35.506 15.8162 35.2155C15.5162 34.859 15.5342 34.5816 15.5532 34.1258C15.5909 34.0505 15.6285 33.9752 15.6673 33.8976C16.2094 33.8863 16.7513 33.878 17.2934 33.8725C17.4777 33.8702 17.662 33.8671 17.8462 33.8631C18.1116 33.8576 18.3769 33.855 18.6424 33.853C18.7243 33.8506 18.8062 33.8483 18.8906 33.8459C19.2998 33.8457 19.5278 33.8856 19.8765 34.1067C20.1193 34.3561 20.2576 34.6042 20.4185 34.9102C20.7042 35.3568 21.0813 35.7278 21.4423 36.114C21.6434 36.3309 21.8318 36.5465 22.0141 36.7786C22.5593 37.4099 23.2114 37.9098 23.8825 38.4C24.123 38.5851 24.3436 38.7841 24.5671 38.9893C24.9915 39.37 25.423 39.5876 25.9363 39.8307C25.9739 39.906 26.0116 39.9813 26.0504 40.0589C26.3144 40.1423 26.5808 40.2188 26.8491 40.2871C26.8491 40.3624 26.8491 40.4377 26.8491 40.5153C26.9244 40.5153 26.9997 40.5153 27.0773 40.5153C27.0773 40.5906 27.0773 40.6659 27.0773 40.7435C27.177 40.7757 27.2767 40.808 27.3795 40.8411C27.7281 40.9602 28.0645 41.0921 28.4037 41.2356C28.5221 41.2854 28.6405 41.3353 28.7625 41.3867C28.8841 41.438 29.0058 41.4893 29.1311 41.5422C29.3711 41.6422 29.6112 41.742 29.8513 41.8417C30.1948 41.9845 30.5348 42.1288 30.872 42.2861C31.3619 42.4965 31.8683 42.5908 32.39 42.6904C33.3946 42.8859 33.3946 42.8859 33.8167 43.0349C34.2484 43.1699 34.6573 43.1914 35.107 43.2109C35.191 43.2153 35.275 43.2198 35.3615 43.2243C35.5667 43.235 35.7718 43.2445 35.977 43.2537C35.977 43.329 35.977 43.4043 35.977 43.4819C40.1137 43.5034 40.1137 43.5034 44.1922 42.9114C44.3695 42.874 44.5469 42.8368 44.7244 42.8C46.5608 42.4069 48.3907 41.8168 50.0113 40.8576C50.1026 40.8222 50.1939 40.7867 50.2881 40.7502C50.5779 40.631 50.8092 40.4931 51.0667 40.3157C51.1993 40.2256 51.1993 40.2256 51.3346 40.1338C51.5165 40.0084 51.698 39.8824 51.8792 39.7559C52.3486 39.4329 52.7603 39.1756 53.3202 39.032C53.3202 38.9567 53.3202 38.8814 53.3202 38.8038C53.509 38.6876 53.6993 38.5736 53.8907 38.4615C53.9283 38.3862 53.966 38.3109 54.0048 38.2333C54.1945 38.1185 54.3847 38.0045 54.5752 37.891C54.6388 37.8275 54.7023 37.764 54.7678 37.6985C54.8172 37.6491 54.8666 37.5997 54.9175 37.5487C54.9929 37.5487 55.0682 37.5487 55.1457 37.5487C55.1881 37.4499 55.1881 37.4499 55.2313 37.3491C55.3948 37.0548 55.5775 36.8572 55.8303 36.636C55.9057 36.636 55.981 36.636 56.0585 36.636C56.0585 36.5606 56.0585 36.4853 56.0585 36.4078C56.1901 36.2723 56.3224 36.1376 56.4588 36.0071C56.7046 35.7619 56.9229 35.4958 57.1456 35.2298C57.3136 35.0386 57.3136 35.0386 57.606 34.7747C57.9367 34.4101 58.1145 34.0359 58.3165 33.59C58.4517 33.3326 58.5851 33.18 58.7969 32.9848C59.1136 32.5229 59.2923 32.0242 59.4815 31.5015C59.7152 30.8773 59.974 30.2859 60.2874 29.6973C60.7849 28.7211 60.9727 27.6782 61.0789 26.5952C61.1542 26.5952 61.2295 26.5952 61.3071 26.5952C61.31 26.0211 61.312 25.4471 61.3134 24.873C61.314 24.6784 61.3147 24.4837 61.3157 24.2891C61.3854 22.1373 61.3854 22.1373 60.8507 20.0915C60.7848 19.7502 60.7347 19.408 60.6836 19.0642C60.6127 18.6673 60.4926 18.3071 60.356 17.929C60.2451 17.5871 60.2041 17.2535 60.1661 16.8967C60.0908 16.8967 60.0155 16.8967 59.9379 16.8967C59.9103 16.8045 59.8826 16.7123 59.8541 16.6173C59.5724 15.7169 59.5724 15.7169 59.0251 14.9571C59.0251 14.8817 59.0251 14.8064 59.0251 14.7289C58.9498 14.7289 58.8745 14.7289 58.7969 14.7289C58.7499 14.6112 58.7028 14.4935 58.6543 14.3723C58.3801 13.7338 57.974 13.2139 57.5418 12.6751C57.4718 12.5836 57.4018 12.4921 57.3297 12.3978C56.9118 11.8573 56.4922 11.3887 55.9663 10.9533C55.6609 10.6872 55.3846 10.3989 55.103 10.1078C54.491 9.48992 53.8397 8.88586 53.0198 8.56347C52.6518 8.41349 52.4516 8.16891 52.1792 7.88289C51.7477 7.49683 51.343 7.29322 50.81 7.08419C50.81 7.00889 50.81 6.93358 50.81 6.85599C50.6782 6.82761 50.5464 6.79922 50.4106 6.76997C49.8941 6.64074 49.4525 6.42768 48.9844 6.17853C48.1701 5.74992 47.3502 5.43016 46.4742 5.1445C46.3706 5.10685 46.2671 5.0692 46.1604 5.0304C45.4361 4.80752 44.6898 4.69371 43.9426 4.574C43.574 4.51451 43.2382 4.4474 42.8801 4.33867C41.6732 4.01541 40.3574 4.09635 39.1161 4.09646C38.8107 4.09622 38.5054 4.09414 38.2 4.09198C36.3535 4.08603 34.4773 4.15234 32.7537 4.86638C32.0033 5.1676 31.3041 5.24413 30.5003 5.2586C30.5003 5.33391 30.5003 5.40921 30.5003 5.4868C30.4378 5.50092 30.3752 5.51504 30.3108 5.52959C29.2412 5.80788 28.2835 6.35013 27.3469 6.92731C27.0732 7.08655 26.8007 7.19572 26.5068 7.31239C25.4232 7.88678 24.4074 8.56782 23.476 9.36618C23.1979 9.59438 23.1979 9.59438 22.9697 9.59438C22.932 9.70734 22.8944 9.8203 22.8556 9.93668C22.7803 9.93668 22.705 9.93668 22.6274 9.93668C22.6274 10.012 22.6274 10.0873 22.6274 10.1649C22.4705 10.3503 22.4705 10.3503 22.2851 10.5072C22.2098 10.5072 22.1345 10.5072 22.0569 10.5072C22.0569 10.5825 22.0569 10.6578 22.0569 10.7354C21.8671 10.8879 21.6768 11.04 21.4864 11.1918C21.303 11.4013 21.1247 11.6155 20.9516 11.8336C20.4739 12.4325 20.4739 12.4325 20.2313 12.6751C20.1492 12.9395 20.0726 13.2057 20.0031 13.4738C19.9278 13.4738 19.8525 13.4738 19.7749 13.4738C19.742 13.5444 19.709 13.615 19.6751 13.6877C19.5467 13.9302 19.5467 13.9302 19.3185 14.1584C19.2856 14.2525 19.2526 14.3466 19.2187 14.4436C19.0903 14.7289 19.0903 14.7289 18.8479 14.8786C18.7773 14.9045 18.7067 14.9304 18.6339 14.9571C18.6339 15.07 18.6339 15.183 18.6339 15.2994C18.7591 15.298 18.8842 15.2967 19.0131 15.2953C20.5132 15.2847 22.0064 15.3415 23.5045 15.4135C23.742 15.4245 23.9795 15.4355 24.217 15.4464C24.7901 15.473 25.3632 15.5001 25.9363 15.5276C25.9363 15.6029 25.9363 15.6782 25.9363 15.7558C26.0704 15.7605 26.2046 15.7652 26.3428 15.77C27.1681 15.8579 27.9186 16.232 28.6747 16.5544C28.7812 16.5946 28.8876 16.6348 28.9974 16.6761C29.2452 16.7826 29.2452 16.7826 29.4734 17.0108C29.694 17.0969 29.915 17.1823 30.1379 17.2622C30.4935 17.3924 30.838 17.5437 31.1849 17.6954C31.1849 17.7707 31.1849 17.8461 31.1849 17.9236C31.2931 17.9566 31.4014 17.9895 31.5129 18.0235C31.8695 18.1518 31.8695 18.1518 32.0977 18.38C32.1659 18.3895 32.2341 18.3989 32.3045 18.4086C32.6311 18.5205 32.7637 18.7284 32.9699 18.9956C33.1413 19.2107 33.1413 19.2107 33.474 19.4569C33.8693 19.8017 34.0392 20.0778 34.2655 20.5479C34.2655 20.6609 34.2655 20.7738 34.2655 20.8902C34.3409 20.8902 34.4162 20.8902 34.4937 20.8902C34.4994 21.3631 34.5035 21.8359 34.5063 22.3088C34.5074 22.4694 34.509 22.6299 34.511 22.7905C34.5138 23.0225 34.515 23.2544 34.516 23.4864C34.5172 23.6257 34.5184 23.7649 34.5197 23.9083C34.4915 24.348 34.4008 24.6945 34.2655 25.1119C34.1902 25.1119 34.1149 25.1119 34.0373 25.1119C34.0278 25.2071 34.0182 25.3022 34.0084 25.4003C33.9058 25.8777 33.7129 26.2378 33.474 26.6594C33.2146 27.1248 32.9663 27.5766 32.7823 28.0785C32.9329 28.0785 33.0835 28.0785 33.2387 28.0785C33.2763 27.9655 33.314 27.8526 33.3528 27.7362C33.4563 27.7032 33.5598 27.6703 33.6665 27.6364C34.0493 27.5343 34.0493 27.5343 34.2972 27.2464C34.6307 26.9148 34.987 26.675 35.3852 26.4312C35.985 26.055 36.562 25.6654 37.118 25.226C37.2192 25.1483 37.3204 25.0707 37.4247 24.9907C37.97 24.5338 38.3531 24.0816 38.7025 23.4659C38.7444 23.4067 38.7863 23.3474 38.8295 23.2863C38.9048 23.2863 38.9801 23.2863 39.0577 23.2863C39.3137 22.5184 39.289 21.6197 38.9508 20.8831C38.9097 20.8065 38.8687 20.7298 38.8264 20.6509C38.7124 20.4279 38.653 20.2217 38.6013 19.9774C38.526 19.9774 38.4507 19.9774 38.3731 19.9774C38.2162 19.8139 38.2162 19.8139 38.0308 19.5852C37.1247 18.5198 36.1232 17.8259 34.9002 17.182C34.816 17.1374 34.7318 17.0929 34.6451 17.0469C34.179 16.8009 33.7111 16.5598 33.2387 16.3262C33.2387 16.2509 33.2387 16.1756 33.2387 16.098C33.1328 16.0816 33.0269 16.0651 32.9177 16.0481C32.5541 15.9839 32.5541 15.9839 32.2118 15.8699C32.2118 15.7569 32.2118 15.6439 32.2118 15.5276C33.044 15.5222 33.8762 15.5182 34.7084 15.5157C35.0949 15.5145 35.4814 15.5129 35.8679 15.5103C36.3131 15.5076 36.7584 15.5063 37.2036 15.5053C37.3412 15.5041 37.4787 15.5029 37.6204 15.5017C38.6427 15.5016 39.4842 15.5492 40.3128 16.2121C40.4515 16.3764 40.59 16.541 40.7229 16.71C41.0986 17.1473 41.5625 17.5176 42.0203 17.8661C42.4872 18.2304 42.6851 18.5159 42.8613 19.0807C42.9729 19.3932 43.1847 19.6068 43.3935 19.8633C43.9052 20.7453 44.2133 21.426 44.3248 22.4341C44.3749 22.864 44.4424 23.2808 44.5374 23.7032C44.6562 24.2909 44.6782 24.85 44.6709 25.448C44.6704 25.6013 44.6704 25.6013 44.6699 25.7577C44.6686 26.0797 44.6658 26.4016 44.6629 26.7236C44.6617 26.9437 44.6607 27.1639 44.6597 27.3841C44.6572 27.9198 44.6533 28.4556 44.6486 28.9913C44.7951 28.9384 44.9414 28.885 45.0877 28.8313C45.1692 28.8016 45.2507 28.772 45.3347 28.7414C45.611 28.6288 45.8237 28.4817 46.0534 28.2924C46.324 28.0718 46.4789 27.9628 46.8165 27.8503C46.9706 27.7001 47.1224 27.5477 47.2729 27.3939C47.4764 27.2359 47.6809 27.079 47.8862 26.9232C48.4324 26.4849 48.7663 26.0601 49.0847 25.4395C49.1269 25.369 49.1691 25.2986 49.2126 25.226C49.2879 25.226 49.3632 25.226 49.4408 25.226C49.6922 24.3492 49.631 23.549 49.2193 22.7412C49.0957 22.4818 49.026 22.2381 48.9559 21.9599C48.6095 20.7561 47.9029 19.668 47.1521 18.6791C46.9242 18.3714 46.7197 18.0559 46.517 17.7311C45.9285 16.7496 45.9285 16.7496 45.105 15.9839C45.105 15.8333 45.105 15.6827 45.105 15.5276C46.0174 15.4766 46.9299 15.4408 47.8434 15.4135C47.9307 15.4108 48.018 15.4081 48.1079 15.4053C48.6855 15.3881 49.263 15.3757 49.8408 15.3682C50.0345 15.3651 50.2281 15.3608 50.4217 15.3553C52.1749 15.3071 52.1749 15.3071 52.6993 15.7303C52.941 15.9874 53.0254 16.2098 53.092 16.5544C53.1673 16.5544 53.2426 16.5544 53.3202 16.5544C53.3272 16.6498 53.3272 16.6498 53.3344 16.747C53.4594 17.0773 53.6615 17.1867 53.9343 17.3968C54.2357 17.6982 54.3804 18.0694 54.557 18.4527C54.7133 18.7712 54.9201 19.0205 55.1457 19.2928C55.2818 19.5936 55.3836 19.8924 55.488 20.2056C55.5634 20.2056 55.6387 20.2056 55.7162 20.2056C56.0585 20.6006 56.0585 20.6006 56.0585 20.8902C56.1339 20.8902 56.2092 20.8902 56.2867 20.8902C56.3634 21.0373 56.4393 21.1848 56.5149 21.3324C56.5573 21.4144 56.5997 21.4965 56.6433 21.5811C56.7431 21.803 56.7431 21.803 56.7431 22.0312C56.8114 22.0336 56.8796 22.0359 56.9499 22.0384C57.1995 22.1453 57.1995 22.1453 57.3493 22.4734C57.3756 22.544 57.4019 22.6146 57.4291 22.6873C57.6714 23.2389 58.0261 23.8847 58.4546 24.3132C58.4593 24.5414 58.4595 24.7697 58.4546 24.9978C58.5299 24.9978 58.6052 24.9978 58.6828 24.9978C58.8118 25.4366 58.8213 25.7008 58.6084 26.0987C58.5234 26.2416 58.4364 26.3833 58.3477 26.5239C58.3036 26.597 58.2596 26.6701 58.2142 26.7454C58.1059 26.9246 57.9952 27.1023 57.8841 27.2798C57.8088 27.2798 57.7335 27.2798 57.6559 27.2798C57.6277 27.3463 57.5995 27.4128 57.5704 27.4813C57.4066 27.774 57.225 27.9458 56.9713 28.1641C56.8913 28.2341 56.8113 28.3041 56.7289 28.3762C56.5149 28.5349 56.5149 28.5349 56.2867 28.5349C56.2867 28.6102 56.2867 28.6855 56.2867 28.7631C56.2161 28.7937 56.1455 28.8243 56.0728 28.8558C55.7962 28.9862 55.7962 28.9862 55.6021 29.3336C55.4751 29.3877 55.348 29.4418 55.2171 29.4976C54.8048 29.639 54.8048 29.639 54.6038 29.9112C54.1781 30.2778 53.6367 30.2891 53.092 30.3605C53.092 30.4358 53.092 30.5111 53.092 30.5887C52.9472 30.6464 52.8022 30.7033 52.657 30.7598C52.5358 30.8075 52.5358 30.8075 52.4123 30.8561C52.1792 30.931 52.1792 30.931 51.8369 30.931C51.8369 31.0063 51.8369 31.0816 51.8369 31.1592C51.7663 31.1709 51.6957 31.1827 51.6229 31.1948C51.3388 31.259 51.3388 31.259 51.1523 31.6156C50.8683 31.7324 50.5956 31.8313 50.3037 31.9222C50.2259 31.9479 50.1482 31.9735 50.0681 32C49.7324 32.1082 49.4532 32.1861 49.0985 32.1861C49.0985 32.2614 49.0985 32.3367 49.0985 32.4143C48.9016 32.4915 48.7042 32.5673 48.5066 32.6425C48.3967 32.6848 48.2868 32.7272 48.1736 32.7708C47.8523 32.868 47.6059 32.8902 47.2729 32.8707C47.2352 32.9836 47.1976 33.0966 47.1588 33.213C46.896 33.3681 46.6418 33.5034 46.3672 33.6337C46.2935 33.6703 46.2197 33.7068 46.1437 33.7445C45.5951 34.0117 45.5951 34.0117 45.3332 34.0117C45.2955 34.1246 45.2579 34.2376 45.2191 34.354C44.5791 34.8206 43.848 34.7516 43.09 34.7538C42.9505 34.7549 42.811 34.756 42.6673 34.7572C42.3729 34.7589 42.0786 34.7597 41.7843 34.7597C41.3337 34.7604 40.8834 34.7667 40.4329 34.7731C40.1467 34.7741 39.8605 34.7748 39.5743 34.7752C39.4396 34.7776 39.305 34.7801 39.1662 34.7826C38.2623 34.775 38.2623 34.775 37.935 34.5554C37.2664 33.7969 37.299 32.7138 37.2963 31.7582C37.2959 31.6488 37.2954 31.5393 37.295 31.4265C37.3097 30.5156 37.4876 29.8035 37.9167 28.9913C36.7845 29.419 36.7845 29.419 35.977 30.2464C35.9017 30.2464 35.8264 30.2464 35.7488 30.2464C35.7488 30.3217 35.7488 30.397 35.7488 30.4746C35.5406 30.5522 35.5406 30.5522 35.3281 30.6315C34.7291 30.8933 34.2488 31.271 33.7442 31.6793C33.4606 31.9077 33.2454 32.0697 32.8964 32.1861C32.8964 32.2614 32.8964 32.3367 32.8964 32.4143C32.7127 32.5872 32.7127 32.5872 32.4685 32.7851C32.0633 33.1273 31.8044 33.4497 31.5272 33.8976C31.4519 33.9352 31.3765 33.9729 31.299 34.0117C31.2637 34.0846 31.2284 34.1576 31.192 34.2327C31.0708 34.4681 31.0708 34.4681 30.7285 34.6963C30.4644 34.7268 30.4644 34.7268 30.1504 34.7294C30.0327 34.7309 29.9151 34.7323 29.7939 34.7338C29.6034 34.7342 29.6034 34.7342 29.4092 34.7346C29.2788 34.7354 29.1484 34.7361 29.014 34.7369C28.7382 34.738 28.4624 34.7386 28.1865 34.7385C27.7635 34.739 27.3407 34.7432 26.9177 34.7475C26.65 34.7482 26.3823 34.7486 26.1146 34.7489C25.9242 34.7513 25.9242 34.7513 25.7299 34.7538C25.6122 34.7531 25.4946 34.7524 25.3734 34.7517C25.2698 34.752 25.1661 34.7523 25.0594 34.7527C24.7953 34.6963 24.7953 34.6963 24.5965 34.4878C24.2256 33.8469 24.2152 33.2434 24.2248 32.5284C24.1477 32.529 24.0706 32.5296 23.9912 32.5303C22.1152 32.5454 20.2392 32.5567 18.3632 32.5638C17.4559 32.5674 16.5487 32.5722 15.6415 32.58C14.8508 32.5868 14.0601 32.5913 13.2693 32.5928C12.8506 32.5937 12.4319 32.5958 12.0132 32.6008C11.5458 32.6063 11.0785 32.6064 10.611 32.6061C10.4722 32.6086 10.3334 32.611 10.1905 32.6135C9.27709 32.6068 9.2771 32.6068 8.95022 32.3808C8.72714 32.1246 8.60346 31.8895 8.52899 31.5585C8.61761 31.1647 8.80453 30.9058 9.04957 30.5887C9.34366 30.4416 9.55622 30.4587 9.88565 30.4565C10.0791 30.4549 10.0791 30.4549 10.2764 30.4531C10.4186 30.4525 10.5607 30.4518 10.7072 30.4512C10.8563 30.45 11.0055 30.4489 11.1592 30.4477C11.5689 30.4446 11.9786 30.4422 12.3883 30.44C12.8162 30.4375 13.2441 30.4344 13.672 30.4313C14.4826 30.4256 15.2932 30.4205 16.1038 30.4155C17.0265 30.4099 17.9492 30.4036 18.872 30.3973C20.7703 30.3843 22.6687 30.3721 24.5671 30.3605C24.5966 30.2817 24.6262 30.2029 24.6567 30.1217C24.6964 30.0185 24.7361 29.9154 24.777 29.8092C24.816 29.7068 24.855 29.6045 24.8951 29.499C25.0614 29.137 25.307 28.9212 25.594 28.649C25.7103 28.3837 25.8245 28.1175 25.9363 27.8503C26.1788 27.5864 26.1788 27.5864 26.3927 27.3939C26.4303 27.3186 26.468 27.2433 26.5068 27.1657C26.5821 27.1657 26.6574 27.1657 26.735 27.1657C26.7468 27.066 26.7585 26.9663 26.7706 26.8635C26.8532 26.4611 26.9846 26.1922 27.1914 25.8393C27.5251 25.2665 27.6641 24.861 27.6692 24.1991C27.6708 24.1026 27.6724 24.0061 27.6741 23.9067C27.646 23.6094 27.5565 23.4338 27.4196 23.1722C27.4539 22.9434 27.493 22.7154 27.5337 22.4876C27.5448 22.0311 27.5403 21.575 27.5337 21.1184C27.4584 21.1184 27.3831 21.1184 27.3055 21.1184C27.1598 20.8879 27.025 20.6572 26.8919 20.4196C26.3215 19.4495 25.6975 19.0267 24.6812 18.6082C24.6319 18.5563 24.5827 18.5044 24.5319 18.4509C24.2614 18.1917 23.962 18.0594 23.6258 17.8951C23.5567 17.8612 23.4876 17.8273 23.4165 17.7924C22.6263 17.4066 21.8286 17.0365 21.03 16.6685C21.0435 16.7347 21.0571 16.8009 21.071 16.8691C21.0857 16.9582 21.1004 17.0474 21.1156 17.1392C21.1315 17.2266 21.1474 17.3139 21.1637 17.404C21.1345 17.839 20.9661 18.0497 20.6877 18.38C20.3213 18.4655 20.3213 18.4656 19.8786 18.4654C19.7971 18.4663 19.7156 18.4672 19.6316 18.4682C19.3583 18.4704 19.0853 18.4677 18.812 18.465C18.6161 18.4656 18.4203 18.4664 18.2244 18.4675C17.6923 18.4697 17.1603 18.4675 16.6282 18.4645C16.0716 18.4619 15.515 18.4628 14.9584 18.4633C14.0234 18.4635 13.0885 18.461 12.1536 18.4568C11.0727 18.4519 9.99176 18.4511 8.91079 18.4525C7.87122 18.4538 6.83166 18.4526 5.79209 18.45C5.34957 18.4489 4.90707 18.4487 4.46456 18.4492C3.94337 18.4496 3.42223 18.4478 2.90105 18.4442C2.70975 18.4432 2.51846 18.443 2.32716 18.4437C2.06601 18.4444 1.80502 18.4423 1.54389 18.4395C1.39776 18.4391 1.25163 18.4386 1.10107 18.4381C0.655224 18.3701 0.466978 18.238 0.149813 17.9236C-0.0149815 17.5941 -0.00728854 17.3764 0.0357138 17.0108C0.347655 16.6209 0.572265 16.4073 1.06261 16.3262C1.31465 16.316 1.56698 16.3123 1.81922 16.3125C1.89509 16.3124 1.97096 16.3123 2.04913 16.3122C2.30316 16.312 2.55718 16.3127 2.81121 16.3133C2.99338 16.3133 3.17555 16.3133 3.35773 16.3132C3.85228 16.3132 4.34682 16.3139 4.84137 16.3147C5.3582 16.3154 5.87504 16.3155 6.39188 16.3156C7.37058 16.3159 8.34928 16.3169 9.32798 16.318C10.4422 16.3193 11.5564 16.3199 12.6706 16.3205C14.9627 16.3217 17.2547 16.3237 19.5467 16.3262C19.5467 16.2509 19.5467 16.1756 19.5467 16.098C19.4819 16.0938 19.417 16.0895 19.3502 16.0851C18.7384 16.033 18.2726 15.9115 17.7211 15.6417C17.7211 15.5287 17.7211 15.4157 17.7211 15.2994C17.6359 15.3011 17.5507 15.3029 17.4629 15.3048C17.0783 15.3119 16.6938 15.3163 16.3091 15.3207C16.175 15.3236 16.0409 15.3265 15.9027 15.3294C15.7747 15.3305 15.6467 15.3316 15.5149 15.3328C15.3966 15.3346 15.2783 15.3364 15.1564 15.3382C15.0614 15.3254 14.9665 15.3126 14.8686 15.2994C14.5975 14.8926 14.6187 14.7428 14.6547 14.2653C14.6621 14.144 14.6694 14.0226 14.677 13.8976C14.7154 13.7443 14.7154 13.7443 14.7545 13.5879C14.9671 13.4711 14.9671 13.4711 15.2109 13.3597C15.4015 13.0646 15.4015 13.0646 15.5604 12.725C15.7284 12.3822 15.7284 12.3822 15.8955 12.1046C16.0085 12.0669 16.1215 12.0293 16.2378 11.9905C16.2449 11.9105 16.252 11.8304 16.2592 11.748C16.4154 11.1953 16.8135 10.8416 17.2148 10.4501C17.5013 10.1749 17.5013 10.1749 17.7011 9.84381C17.9557 9.47102 18.2283 9.17357 18.5479 8.85541C18.6323 8.77111 18.6323 8.77111 18.7184 8.68511C18.8365 8.5673 18.9549 8.44976 19.0736 8.33249C19.2541 8.15416 19.4335 7.97492 19.6129 7.79553C20.2751 7.1366 20.9172 6.5196 21.7217 6.0359C21.8172 5.97781 21.9127 5.91971 22.011 5.85985C22.2592 5.7287 22.4674 5.65344 22.7415 5.6009C22.7499 5.53207 22.7583 5.46323 22.7669 5.39231C22.8879 5.05425 23.0476 4.99366 23.3619 4.83073C23.4536 4.7819 23.5452 4.73307 23.6396 4.68276C23.8825 4.574 23.8825 4.574 24.1107 4.574C24.1107 4.4987 24.1107 4.42339 24.1107 4.34581C24.8666 4.00351 24.8666 4.00351 25.2517 4.00351C25.2517 3.9282 25.2517 3.8529 25.2517 3.77531C25.594 3.54711 25.594 3.54711 25.8935 3.49006C25.9829 3.47123 26.0724 3.45241 26.1645 3.43301C26.2021 3.3577 26.2398 3.2824 26.2786 3.20481C26.5434 3.08259 26.8069 2.97088 27.0773 2.86251C27.2301 2.79742 27.3829 2.73204 27.5355 2.6664C29.8411 1.69133 29.8411 1.69133 30.8426 1.72152C30.8426 1.64621 30.8426 1.57091 30.8426 1.49332C30.9061 1.48905 30.9696 1.48479 31.0351 1.48039C31.4889 1.4413 31.8845 1.38931 32.3045 1.20807C32.8962 0.962014 33.518 0.953438 34.1514 0.922822C34.1514 0.847517 34.1514 0.772211 34.1514 0.694623C34.2476 0.68771 34.3438 0.680798 34.4429 0.673675C34.568 0.664115 34.693 0.654555 34.8218 0.644705C34.9462 0.635439 35.0706 0.626173 35.1988 0.616626C35.5146 0.599919 35.5146 0.599919 35.7488 0.466424C40.8589 -0.173322 40.8589 -0.173322 42.3666 0.580524Z" fill="#142FBB"/>
<path d="M14.7545 13.5879C14.8298 13.5879 14.9052 13.5879 14.9827 13.5879C14.9827 14.0773 14.9827 14.5668 14.9827 15.0712C16.1876 15.0712 17.3925 15.0712 18.6339 15.0712C18.6339 15.1465 18.6339 15.2218 18.6339 15.2994C18.7591 15.298 18.8842 15.2967 19.0131 15.2953C20.5132 15.2847 22.0064 15.3415 23.5045 15.4135C23.742 15.4245 23.9795 15.4355 24.217 15.4464C24.7901 15.473 25.3632 15.5001 25.9363 15.5276C25.9363 15.6029 25.9363 15.6782 25.9363 15.7558C26.2752 15.7934 26.614 15.8311 26.9632 15.8699C26.5049 15.9844 26.3264 15.9696 25.8785 15.8784C25.1721 15.7511 24.4971 15.7261 23.7809 15.7335C23.6587 15.7338 23.5366 15.7341 23.4107 15.7344C23.026 15.7357 22.6413 15.7386 22.2566 15.7415C21.9935 15.7426 21.7304 15.7437 21.4672 15.7446C20.8271 15.7471 20.1869 15.7509 19.5467 15.7558C19.5467 15.8311 19.5467 15.9064 19.5467 15.984C19.6809 16.0087 19.6809 16.0087 19.8177 16.0339C20.1172 16.098 20.1172 16.098 20.3454 16.2121C20.3454 16.3251 20.3454 16.4381 20.3454 16.5544C20.4796 16.6039 20.4796 16.6039 20.6164 16.6543C20.9159 16.7826 20.9159 16.7826 21.1441 17.0108C21.2029 17.4422 21.1598 17.6641 20.9638 18.0556C20.6877 18.38 20.6877 18.38 20.3213 18.4656C20.1022 18.4655 20.1022 18.4655 19.8786 18.4654C19.7971 18.4663 19.7156 18.4672 19.6316 18.4682C19.3583 18.4704 19.0853 18.4677 18.812 18.465C18.6161 18.4656 18.4203 18.4664 18.2244 18.4675C17.6923 18.4697 17.1603 18.4675 16.6282 18.4645C16.0716 18.4619 15.515 18.4628 14.9584 18.4633C14.0234 18.4635 13.0885 18.461 12.1536 18.4568C11.0727 18.4519 9.99176 18.4511 8.91079 18.4525C7.87122 18.4538 6.83166 18.4526 5.79209 18.45C5.34957 18.4489 4.90707 18.4487 4.46456 18.4492C3.94337 18.4496 3.42223 18.4478 2.90105 18.4442C2.70976 18.4432 2.51846 18.443 2.32716 18.4437C2.06601 18.4444 1.80502 18.4423 1.54388 18.4395C1.39776 18.4391 1.25163 18.4386 1.10107 18.4381C0.655224 18.3701 0.466978 18.238 0.149813 17.9236C-0.0149815 17.5941 -0.00728853 17.3764 0.0357138 17.0108C0.347655 16.6209 0.572265 16.4073 1.06261 16.3262C1.31465 16.316 1.56698 16.3123 1.81922 16.3125C1.89509 16.3124 1.97096 16.3123 2.04913 16.3122C2.30316 16.312 2.55718 16.3127 2.81121 16.3133C2.99338 16.3133 3.17555 16.3133 3.35773 16.3132C3.85228 16.3132 4.34682 16.3139 4.84136 16.3147C5.3582 16.3154 5.87504 16.3155 6.39188 16.3156C7.37058 16.316 8.34928 16.3169 9.32798 16.318C10.4422 16.3193 11.5564 16.3199 12.6706 16.3205C14.9627 16.3217 17.2547 16.3237 19.5467 16.3262C19.5467 16.2509 19.5467 16.1756 19.5467 16.098C19.4819 16.0938 19.417 16.0895 19.3502 16.0851C18.7384 16.033 18.2726 15.9115 17.7211 15.6417C17.7211 15.5287 17.7211 15.4157 17.7211 15.2994C17.6359 15.3011 17.5507 15.3029 17.4629 15.3048C17.0783 15.3119 16.6938 15.3163 16.3091 15.3207C16.175 15.3236 16.0409 15.3265 15.9027 15.3294C15.7747 15.3305 15.6467 15.3316 15.5149 15.3328C15.3966 15.3346 15.2783 15.3364 15.1564 15.3382C15.0614 15.3254 14.9665 15.3126 14.8686 15.2994C14.5914 14.8836 14.631 14.7369 14.6832 14.2511C14.6959 14.1271 14.7085 14.0031 14.7216 13.8753C14.7324 13.7805 14.7433 13.6856 14.7545 13.5879Z" fill="#142FBB"/>
<path d="M4.61864 27.6767C4.7011 27.6758 4.78356 27.6749 4.86851 27.674C5.14489 27.6717 5.42116 27.6726 5.69755 27.6735C5.89566 27.6725 6.09377 27.6713 6.29188 27.67C6.83009 27.6669 7.36825 27.6668 7.90646 27.6674C8.35562 27.6676 8.80477 27.6665 9.25392 27.6654C10.3134 27.6629 11.373 27.6628 12.4325 27.6641C13.5259 27.6655 14.6192 27.6627 15.7126 27.6579C16.6511 27.6538 17.5896 27.6525 18.5281 27.6532C19.0887 27.6536 19.6493 27.653 20.21 27.6499C20.7372 27.647 21.2643 27.6474 21.7915 27.6504C21.985 27.6509 22.1785 27.6503 22.372 27.6484C22.6362 27.6461 22.9001 27.6479 23.1643 27.6508C23.3121 27.6508 23.4599 27.6507 23.6122 27.6507C24.1484 27.77 24.2661 27.9694 24.567 28.4208C24.6407 28.7983 24.5861 28.9522 24.4172 29.2979C24.2247 29.5618 24.2247 29.5618 23.8824 29.79C23.53 29.82 23.53 29.82 23.087 29.822C23.0056 29.8227 22.9242 29.8234 22.8403 29.8241C22.5667 29.8261 22.2932 29.8264 22.0196 29.8267C21.8238 29.8278 21.628 29.8289 21.4321 29.8302C20.8996 29.8332 20.367 29.8346 19.8345 29.8357C19.5019 29.8363 19.1693 29.8373 18.8367 29.8383C17.7965 29.8414 16.7562 29.8436 15.716 29.8445C14.5145 29.8455 13.3131 29.8495 12.1116 29.8561C11.1833 29.8611 10.255 29.8634 9.32664 29.8637C8.77198 29.8639 8.21738 29.8653 7.66273 29.8693C7.14107 29.8731 6.6195 29.8736 6.09782 29.8716C5.90634 29.8714 5.71485 29.8724 5.52338 29.8747C5.26192 29.8775 5.0008 29.8762 4.73934 29.8738C4.51992 29.8743 4.51992 29.8743 4.29608 29.8749C3.76348 29.7562 3.64594 29.5517 3.3445 29.1054C3.24422 28.7553 3.29012 28.5672 3.3445 28.1926C3.70658 27.6885 4.01859 27.6786 4.61864 27.6767Z" fill="#142FBB"/>
<path d="M7.59543 22.1725C7.6776 22.1714 7.75977 22.1704 7.84443 22.1693C8.11919 22.1665 8.3937 22.1687 8.66846 22.1708C8.86565 22.1699 9.06284 22.1687 9.26003 22.1672C9.79518 22.1641 10.3302 22.1653 10.8654 22.1675C11.4253 22.1692 11.9851 22.1676 12.545 22.1665C13.4851 22.1653 14.4251 22.1669 15.3652 22.1702C16.4525 22.1739 17.5397 22.1727 18.6269 22.1689C19.5602 22.1658 20.4934 22.1654 21.4267 22.1672C21.9842 22.1682 22.5417 22.1684 23.0992 22.1661C23.6232 22.1641 24.1471 22.1655 24.6711 22.1695C24.8636 22.1704 25.056 22.1701 25.2485 22.1686C25.511 22.1667 25.7731 22.1691 26.0356 22.1725C26.1825 22.1727 26.3295 22.173 26.4808 22.1733C26.849 22.2594 26.849 22.2594 27.1238 22.5915C27.3811 23.0908 27.3948 23.3027 27.3054 23.8568C26.8054 24.2846 26.4411 24.3702 25.7922 24.3696C25.7113 24.3702 25.6305 24.3707 25.5471 24.3713C25.2775 24.3726 25.008 24.3706 24.7384 24.3686C24.5445 24.3689 24.3507 24.3693 24.1569 24.37C23.6314 24.3711 23.106 24.3693 22.5805 24.367C22.0306 24.365 21.4806 24.3654 20.9306 24.3655C20.0073 24.3653 19.084 24.3633 18.1608 24.3602C17.093 24.3566 16.0253 24.3554 14.9576 24.3556C13.9304 24.3557 12.9033 24.3545 11.8761 24.3526C11.4389 24.3518 11.0018 24.3514 10.5646 24.3513C10.05 24.3511 9.53553 24.3497 9.021 24.3474C8.83205 24.3467 8.6431 24.3464 8.45414 24.3466C8.1965 24.3467 7.93891 24.3454 7.68128 24.3437C7.53702 24.3433 7.39277 24.343 7.24414 24.3426C6.90026 24.3147 6.70922 24.2742 6.42522 24.085C6.16198 23.7165 6.13495 23.3874 6.19703 22.944C6.6066 22.3224 6.82507 22.1738 7.59543 22.1725Z" fill="#142FBB"/>
<path d="M6.69638 19.0479C6.8266 19.047 6.95682 19.0462 7.09098 19.0454C7.23455 19.0451 7.37811 19.0448 7.52602 19.0445C7.6782 19.0437 7.83037 19.043 7.98254 19.0422C8.39651 19.0402 8.81048 19.039 9.22445 19.038C9.48297 19.0375 9.7415 19.0368 10 19.036C10.8086 19.0339 11.6171 19.0323 12.4257 19.0313C13.3596 19.0302 14.2935 19.0272 15.2275 19.0226C15.949 19.0191 16.6705 19.0174 17.392 19.0171C17.8232 19.0168 18.2542 19.0158 18.6854 19.0129C19.0909 19.0103 19.4964 19.0098 19.9019 19.0109C20.1217 19.011 20.3416 19.0088 20.5614 19.0066C20.6923 19.0074 20.8231 19.0082 20.958 19.009C21.0717 19.0087 21.1854 19.0084 21.3026 19.0082C21.6837 19.0804 21.8187 19.221 22.0568 19.521C22.1214 19.7992 22.1214 19.7992 22.121 20.0915C22.1235 20.188 22.126 20.2845 22.1286 20.3839C22.0254 20.7838 21.8251 20.8926 21.4863 21.1184C21.1736 21.1765 21.1736 21.1765 20.8281 21.1779C20.6966 21.1795 20.5651 21.1812 20.4297 21.1828C20.2865 21.1823 20.1432 21.1817 19.9957 21.1811C19.8425 21.1821 19.6894 21.1833 19.5362 21.1846C19.121 21.1877 18.7059 21.1878 18.2908 21.1873C17.944 21.187 17.5972 21.1881 17.2504 21.1892C16.4323 21.1918 15.6142 21.1919 14.7961 21.1905C13.9524 21.1891 13.1088 21.1919 12.2651 21.1968C11.5402 21.2008 10.8154 21.2022 10.0906 21.2014C9.65787 21.201 9.22521 21.2016 8.79249 21.2048C8.38562 21.2076 7.97889 21.2072 7.57202 21.2042C7.35179 21.2034 7.13156 21.206 6.91135 21.2087C5.97136 21.1972 5.97136 21.1972 5.63887 20.9726C5.39263 20.6924 5.28714 20.4482 5.21289 20.0844C5.30795 19.6376 5.50887 19.4669 5.8547 19.1787C6.15037 19.0309 6.36515 19.0493 6.69638 19.0479Z" fill="#142FBB"/>
<path d="M7.76801 24.7109C7.8995 24.7094 8.03098 24.708 8.16646 24.7065C8.30968 24.7072 8.4529 24.708 8.60046 24.7088C8.75362 24.7079 8.90678 24.7069 9.05994 24.7058C9.47509 24.7032 9.89019 24.7035 10.3053 24.7046C10.6521 24.7051 10.9989 24.7043 11.3457 24.7035C12.1638 24.7015 12.9819 24.7019 13.8001 24.7038C14.6438 24.7058 15.4874 24.704 16.3311 24.7003C17.0559 24.6972 17.7807 24.6964 18.5055 24.6974C18.9383 24.6979 19.3709 24.6977 19.8036 24.6953C20.2105 24.6933 20.6173 24.6939 21.0241 24.6967C21.2443 24.6976 21.4646 24.6956 21.6848 24.6936C22.7616 24.7054 22.7616 24.7054 23.1167 25.034C23.371 25.4328 23.3711 25.6736 23.3119 26.1388C23.2192 26.4098 23.2192 26.4098 23.0837 26.5952C22.731 26.7128 22.489 26.7239 22.1193 26.7246C21.9901 26.7251 21.8608 26.7255 21.7277 26.726C21.5148 26.726 21.5148 26.726 21.2976 26.7259C21.0736 26.7265 21.0736 26.7265 20.845 26.727C20.435 26.7281 20.0251 26.7283 19.6151 26.7284C19.2729 26.7285 18.9306 26.7289 18.5884 26.7293C17.7809 26.7303 16.9734 26.7305 16.1659 26.7305C15.333 26.7304 14.5001 26.7316 13.6672 26.7334C12.9521 26.7349 12.2369 26.7355 11.5218 26.7354C11.0947 26.7354 10.6676 26.7357 10.2405 26.7369C9.76411 26.7382 9.28773 26.7377 8.81133 26.737C8.66988 26.7377 8.52844 26.7383 8.38271 26.739C8.18786 26.7383 8.18786 26.7383 7.98908 26.7375C7.82015 26.7376 7.82015 26.7376 7.64781 26.7377C7.31317 26.707 7.06854 26.6286 6.76751 26.4811C6.47002 26.0986 6.48084 25.6938 6.53931 25.226C6.93753 24.8242 7.20772 24.7125 7.76801 24.7109Z" fill="#142FBB"/>
<path d="M39.8562 35.9514C40.3859 36.7138 40.5333 37.4321 40.4267 38.3474C40.3702 38.5169 40.3702 38.5169 40.3126 38.6897C40.1997 38.6897 40.0867 38.6897 39.9703 38.6897C39.9703 38.7745 39.9703 38.8592 39.9703 38.9465C39.8429 39.2968 39.7893 39.3444 39.4783 39.5241C38.8597 39.7972 38.2374 39.8064 37.5742 39.7166C36.9521 39.4451 36.5661 38.9733 36.3191 38.3474C36.1745 37.5568 36.306 36.9539 36.7341 36.2798C36.9702 35.9545 37.1698 35.6846 37.5457 35.5235C38.3897 35.4297 39.1306 35.4676 39.8562 35.9514Z" fill="#142FBB"/>
<path d="M27.9901 35.495C28.1921 35.4919 28.3942 35.4897 28.5962 35.4878C28.7087 35.4865 28.8212 35.4852 28.9372 35.4838C29.2452 35.495 29.2452 35.495 29.5875 35.6091C29.5875 35.722 29.5875 35.835 29.5875 35.9514C29.6863 35.9584 29.6863 35.9584 29.7871 35.9656C30.1773 36.1174 30.2952 36.3964 30.5002 36.75C30.7174 37.4015 30.7142 38.0963 30.4432 38.7325C30.1569 39.227 29.7909 39.4539 29.2452 39.6025C28.5652 39.6938 27.9938 39.6648 27.4196 39.2602C26.9942 38.8369 26.6407 38.474 26.6057 37.8483C26.606 37.7494 26.6063 37.6506 26.6066 37.5487C26.6063 37.4499 26.606 37.3511 26.6057 37.2492C26.6209 36.9782 26.6209 36.9782 26.735 36.6359C26.8103 36.6359 26.8856 36.6359 26.9632 36.6359C26.9914 36.5701 27.0196 36.5042 27.0487 36.4363C27.2135 36.1397 27.3894 35.9424 27.6478 35.7232C27.7607 35.7232 27.8737 35.7232 27.9901 35.7232C27.9901 35.6478 27.9901 35.5725 27.9901 35.495Z" fill="#142FBB"/>
<path d="M14.7544 13.5879C14.8297 13.5879 14.905 13.5879 14.9826 13.5879C14.9826 14.0773 14.9826 14.5668 14.9826 15.0712C16.1875 15.0712 17.3924 15.0712 18.6338 15.0712C18.6338 15.1465 18.6338 15.2218 18.6338 15.2994C18.7589 15.298 18.8841 15.2967 19.013 15.2953C20.5131 15.2847 22.0063 15.3415 23.5044 15.4135C23.7419 15.4245 23.9794 15.4355 24.2169 15.4464C24.79 15.473 25.3631 15.5001 25.9362 15.5276C25.9362 15.6029 25.9362 15.6782 25.9362 15.7558C26.275 15.7934 26.6139 15.8311 26.9631 15.8699C26.5047 15.9844 26.3262 15.9696 25.8783 15.8784C25.1719 15.7511 24.497 15.7261 23.7807 15.7335C23.6586 15.7338 23.5364 15.7341 23.4106 15.7344C23.0259 15.7357 22.6412 15.7386 22.2565 15.7415C21.9933 15.7426 21.7302 15.7437 21.4671 15.7446C20.8269 15.7471 20.1868 15.7509 19.5466 15.7558C19.5466 15.8311 19.5466 15.9064 19.5466 15.984C19.6807 16.0087 19.6807 16.0087 19.8176 16.0339C20.1171 16.0981 20.1171 16.0981 20.3453 16.2121C20.3453 16.3251 20.3453 16.4381 20.3453 16.5544C13.8313 16.5544 7.31741 16.5544 0.606079 16.5544C1.08595 16.3145 1.29475 16.298 1.81909 16.2988C1.89496 16.2986 1.97083 16.2984 2.049 16.2982C2.30304 16.2978 2.55704 16.2991 2.81107 16.3003C2.99325 16.3004 3.17542 16.3004 3.3576 16.3002C3.85215 16.3002 4.34668 16.3015 4.84123 16.3031C5.35807 16.3045 5.87491 16.3047 6.39174 16.3049C7.37045 16.3057 8.34915 16.3075 9.32785 16.3098C10.4421 16.3124 11.5563 16.3136 12.6705 16.3148C14.9625 16.3172 17.2546 16.3212 19.5466 16.3262C19.5466 16.2509 19.5466 16.1756 19.5466 16.0981C19.4817 16.0938 19.4169 16.0895 19.35 16.0851C18.7383 16.033 18.2724 15.9115 17.721 15.6417C17.721 15.5287 17.721 15.4157 17.721 15.2994C17.6358 15.3011 17.5506 15.3029 17.4628 15.3048C17.0782 15.3119 16.6936 15.3163 16.309 15.3207C16.1749 15.3236 16.0407 15.3265 15.9025 15.3294C15.7746 15.3305 15.6466 15.3316 15.5148 15.3328C15.3965 15.3346 15.2782 15.3364 15.1563 15.3382C15.0613 15.3254 14.9663 15.3126 14.8685 15.2994C14.5913 14.8836 14.6309 14.7369 14.6831 14.2511C14.6957 14.1271 14.7084 14.0031 14.7214 13.8753C14.7323 13.7805 14.7432 13.6856 14.7544 13.5879Z" fill="#D2D2D2"/>
<path d="M6.88159 24.3132C13.3955 24.3132 19.9095 24.3132 26.6208 24.3132C26.6208 24.3509 26.6208 24.3885 26.6208 24.4273C24.644 24.4838 24.644 24.4838 22.6273 24.5414C22.7403 24.6544 22.8532 24.7673 22.9696 24.8837C15.119 24.8272 15.119 24.8272 7.10979 24.7696C7.10979 24.6943 7.10979 24.619 7.10979 24.5414C7.03449 24.4661 6.95918 24.3908 6.88159 24.3132Z" fill="#3A3A3A"/>
<path d="M32.2118 15.5276C33.044 15.5222 33.8762 15.5182 34.7084 15.5157C35.0949 15.5145 35.4814 15.5129 35.8679 15.5103C36.3132 15.5076 36.7584 15.5063 37.2036 15.5053C37.41 15.5035 37.41 15.5035 37.6205 15.5017C38.6605 15.5016 39.464 15.5755 40.3129 16.2122C40.2375 16.2498 40.1622 16.2875 40.0847 16.3262C39.9717 16.2886 39.8587 16.2509 39.7424 16.2122C39.7424 16.1368 39.7424 16.0615 39.7424 15.984C39.0769 15.8398 38.42 15.8554 37.7429 15.8587C37.6173 15.8589 37.4916 15.859 37.3622 15.8592C36.9623 15.8598 36.5624 15.8613 36.1625 15.8627C35.8908 15.8633 35.619 15.8638 35.3473 15.8643C34.6825 15.8655 34.0176 15.8674 33.3528 15.8699C33.6041 16.1297 33.8252 16.2987 34.1488 16.4622C34.2347 16.5064 34.3206 16.5506 34.4091 16.5961C34.5901 16.6876 34.771 16.7792 34.952 16.8707C35.0376 16.9147 35.1232 16.9588 35.2114 17.0042C35.2898 17.0438 35.3683 17.0835 35.4492 17.1243C35.6348 17.239 35.6348 17.239 35.7489 17.4672C35.1607 17.3296 34.6916 17.1125 34.1693 16.8103C33.8656 16.6353 33.5537 16.4797 33.2387 16.3262C33.2387 16.2509 33.2387 16.1756 33.2387 16.0981C33.1328 16.0816 33.0269 16.0651 32.9178 16.0481C32.5541 15.984 32.5541 15.984 32.2118 15.8699C32.2118 15.7569 32.2118 15.6439 32.2118 15.5276Z" fill="#C0C0C0"/>
<path d="M19.5467 16.0981C19.7678 16.1408 19.7678 16.1408 20.0031 16.2122C20.0408 16.2875 20.0784 16.3628 20.1172 16.4404C13.8292 16.4404 7.54119 16.4404 1.06262 16.4404C1.06262 16.4027 1.06262 16.365 1.06262 16.3263C7.16238 16.3263 13.2621 16.3263 19.5467 16.3263C19.5467 16.2509 19.5467 16.1756 19.5467 16.0981Z" fill="#8F8F8F"/>
<path d="M7.77196 24.7147C7.90427 24.7141 8.03658 24.7135 8.1729 24.7128C8.31702 24.7145 8.46113 24.7161 8.60962 24.7178C8.76371 24.7179 8.91779 24.7179 9.07188 24.7176C9.48936 24.7175 9.90678 24.7201 10.3242 24.7233C10.7608 24.7262 11.1974 24.7265 11.634 24.727C12.4604 24.7284 13.2867 24.7322 14.1131 24.7367C15.054 24.7418 15.9949 24.7444 16.9359 24.7466C18.8711 24.7514 20.8063 24.7594 22.7415 24.7696C22.7415 24.8073 22.7415 24.8449 22.7415 24.8837C22.6626 24.8841 22.5836 24.8845 22.5023 24.8849C20.5815 24.8941 18.6608 24.9046 16.7401 24.9165C15.8113 24.9222 14.8824 24.9275 13.9536 24.9318C13.1441 24.9356 12.3346 24.9401 11.5251 24.9456C11.0964 24.9485 10.6677 24.951 10.239 24.9526C9.76064 24.9543 9.28229 24.9578 8.80392 24.9614C8.66152 24.9617 8.51913 24.9619 8.37242 24.9622C8.24219 24.9635 8.11195 24.9647 7.97777 24.966C7.8646 24.9667 7.75144 24.9673 7.63484 24.968C7.32697 24.9989 7.13888 25.0557 6.88172 25.226C6.80192 25.4754 6.80192 25.4754 6.79614 25.7537C6.78967 25.847 6.7832 25.9402 6.77653 26.0363C6.77359 26.1078 6.77065 26.1793 6.76762 26.2529C6.53942 26.0247 6.53942 26.0247 6.4895 25.6396C6.53942 25.226 6.53942 25.226 6.78641 24.9754C7.15494 24.741 7.33968 24.7131 7.77196 24.7147Z" fill="#C8C8C8"/>
<path d="M38.4602 3.98862C38.7718 3.98923 39.0834 3.98862 39.3951 3.98789C42.2259 3.98666 42.2259 3.98666 43.2794 4.34579C43.2794 4.38344 43.2794 4.4211 43.2794 4.45989C43.0844 4.44791 43.0844 4.44791 42.8856 4.43568C41.5304 4.35612 40.1797 4.32325 38.8223 4.3244C38.7218 4.32432 38.6212 4.32423 38.5176 4.32415C36.8244 4.3243 35.1516 4.39582 33.4668 4.57399C33.7522 4.28861 33.9131 4.28627 34.3083 4.22456C34.4174 4.20676 34.5265 4.18897 34.639 4.17063C35.9148 4.01149 37.1762 3.98562 38.4602 3.98862Z" fill="#424242"/>
<path d="M33.0105 46.4485C33.7125 46.4374 33.7125 46.4374 33.9233 46.4485C33.9609 46.4862 33.9986 46.5238 34.0374 46.5626C35.7772 46.8925 37.5727 46.8402 39.3367 46.8594C39.7437 46.864 40.1508 46.8698 40.5578 46.8755C41.3509 46.8864 42.144 46.8961 42.9372 46.9049C42.8995 46.9802 42.8618 47.0555 42.8231 47.1331C41.9462 47.1358 41.0694 47.1378 40.1925 47.139C39.7853 47.1396 39.3781 47.1404 38.9709 47.1417C38.5773 47.143 38.1837 47.1436 37.7901 47.1439C37.5682 47.1442 37.3462 47.1451 37.1243 47.146C36.4264 47.1461 35.754 47.1278 35.0643 47.019C35.0643 46.9437 35.0643 46.8684 35.0643 46.7908C34.9832 46.7921 34.9022 46.7935 34.8187 46.7948C34.7138 46.7958 34.609 46.7969 34.5009 46.7979C34.3963 46.7993 34.2918 46.8006 34.184 46.8019C33.9233 46.7908 33.9233 46.7908 33.8092 46.6767C33.5436 46.6348 33.2773 46.5966 33.0105 46.5626C33.0105 46.525 33.0105 46.4873 33.0105 46.4485Z" fill="#838383"/>
<path d="M9.27771 32.5284C14.2102 32.5284 19.1427 32.5284 24.2247 32.5284C24.2624 32.8296 24.3 33.1308 24.3388 33.4412C24.3765 33.4788 24.4141 33.5165 24.4529 33.5553C24.4576 33.7834 24.4578 34.0117 24.4529 34.2399C24.34 34.1646 24.227 34.0893 24.1106 34.0117C24.1106 33.5598 24.1106 33.108 24.1106 32.6425C19.2158 32.6425 14.3209 32.6425 9.27771 32.6425C9.27771 32.6048 9.27771 32.5672 9.27771 32.5284Z" fill="#525252"/>
<path d="M14.7544 13.5879C14.8298 13.5879 14.9051 13.5879 14.9826 13.5879C14.9826 14.0773 14.9826 14.5668 14.9826 15.0712C16.1875 15.0712 17.3924 15.0712 18.6338 15.0712C18.6338 15.1465 18.6338 15.2218 18.6338 15.2994C18.7678 15.298 18.9018 15.2967 19.0399 15.2953C20.2786 15.2871 21.5058 15.3249 22.7414 15.4135C22.7414 15.4511 22.7414 15.4888 22.7414 15.5276C21.3483 15.5652 19.9551 15.6029 18.5197 15.6417C18.6703 15.7546 18.821 15.8676 18.9761 15.984C18.5418 15.9073 18.1373 15.7868 17.721 15.6417C17.721 15.5287 17.721 15.4157 17.721 15.2994C17.6358 15.3011 17.5506 15.3029 17.4628 15.3048C17.0782 15.3119 16.6937 15.3163 16.3091 15.3207C16.1749 15.3236 16.0408 15.3265 15.9026 15.3294C15.7746 15.3305 15.6467 15.3316 15.5148 15.3328C15.3965 15.3346 15.2782 15.3364 15.1563 15.3382C15.0613 15.3254 14.9664 15.3126 14.8685 15.2994C14.5913 14.8836 14.6309 14.7369 14.6831 14.2511C14.6958 14.1271 14.7084 14.0031 14.7215 13.8753C14.7323 13.7805 14.7432 13.6856 14.7544 13.5879Z" fill="#797979"/>
<path d="M37.4602 30.1323C37.4979 30.1323 37.5355 30.1323 37.5743 30.1323C37.5737 30.2077 37.5731 30.2832 37.5725 30.3609C37.5701 30.7007 37.5686 31.0405 37.5672 31.3802C37.5662 31.499 37.5653 31.6178 37.5643 31.7401C37.5639 31.853 37.5635 31.9659 37.5632 32.0822C37.5626 32.1868 37.562 32.2913 37.5613 32.3991C37.547 32.6406 37.547 32.6406 37.6884 32.7566C37.7151 32.9675 37.7355 33.1793 37.7526 33.3912C37.7621 33.5067 37.7717 33.6222 37.7816 33.7411C37.7885 33.8304 37.7954 33.9197 37.8025 34.0117C37.8778 34.0117 37.9531 34.0117 38.0307 34.0117C38.106 34.1623 38.1813 34.3129 38.2589 34.4681C40.3675 34.4681 42.476 34.4681 44.6485 34.4681C44.592 34.581 44.592 34.581 44.5344 34.6963C43.6349 34.7136 42.7354 34.7256 41.8358 34.7339C41.5297 34.7369 41.2238 34.7417 40.9178 34.7479C40.4779 34.7562 40.0382 34.7601 39.5982 34.7631C39.4614 34.7666 39.3246 34.7702 39.1836 34.7738C38.2623 34.7742 38.2623 34.7742 37.9334 34.556C37.2398 33.7683 37.3121 32.672 37.3247 31.6869C37.3248 31.5747 37.3249 31.4624 37.3249 31.3468C37.33 30.5229 37.33 30.5229 37.4602 30.1323Z" fill="#7B7B7B"/>
<path d="M44.078 21.1184C44.1533 21.1184 44.2286 21.1184 44.3062 21.1184C44.3214 21.2146 44.3365 21.3108 44.3521 21.4099C44.3723 21.5349 44.3924 21.66 44.4132 21.7888C44.433 21.9132 44.4529 22.0376 44.4733 22.1658C44.5179 22.4806 44.5179 22.4806 44.6485 22.7158C44.8259 24.0088 44.7757 25.3294 44.7697 26.6309C44.7692 26.8495 44.7686 27.0681 44.7682 27.2867C44.7669 27.8169 44.765 28.347 44.7626 28.8772C44.8379 28.8772 44.9132 28.8772 44.9908 28.8772C44.9908 28.8019 44.9908 28.7266 44.9908 28.649C45.3297 28.5925 45.3297 28.5925 45.6754 28.5349C45.3814 28.9105 45.1064 28.9274 44.6485 28.9913C44.6468 28.8597 44.6452 28.7282 44.6435 28.5926C44.6367 28.0948 44.6279 27.597 44.6186 27.0991C44.6148 26.8855 44.6116 26.6719 44.609 26.4582C44.5932 25.2077 44.5229 24.0113 44.2719 22.7845C44.1646 22.2318 44.1132 21.6798 44.078 21.1184Z" fill="#555555"/>
<path d="M27.4194 21.1184C27.7383 21.6855 27.6958 22.2369 27.5763 22.8584C27.5039 23.1648 27.5039 23.1648 27.6432 23.3844C27.784 23.6746 27.7922 23.878 27.7902 24.1991C27.7908 24.2956 27.7914 24.3921 27.792 24.4915C27.7617 24.7696 27.7617 24.7696 27.5335 25.226C27.5335 24.8495 27.5335 24.4729 27.5335 24.085C27.3829 24.085 27.2323 24.085 27.0771 24.085C27.0771 24.1603 27.0771 24.2356 27.0771 24.3132C26.9265 24.2756 26.7759 24.2379 26.6207 24.1991C27.0486 23.8568 27.0486 23.8568 27.3053 23.8568C27.2958 23.7771 27.2862 23.6974 27.2764 23.6152C27.2589 23.4595 27.2589 23.4595 27.2411 23.3006C27.2292 23.1973 27.2173 23.0941 27.205 22.9877C27.1912 22.7158 27.1912 22.7158 27.3053 22.4876C27.3314 22.2551 27.3521 22.022 27.3695 21.7888C27.3791 21.6637 27.3886 21.5387 27.3985 21.4099C27.4054 21.3137 27.4123 21.2175 27.4194 21.1184Z" fill="#474747"/>
<path d="M30.9566 34.2399C31.0319 34.2775 31.1072 34.3152 31.1848 34.354C30.8273 34.6699 30.6061 34.7386 30.132 34.7351C30.0132 34.7351 29.8945 34.7351 29.7721 34.735C29.6447 34.7333 29.5173 34.7315 29.386 34.7297C29.2549 34.7292 29.1239 34.7287 28.9889 34.7282C28.5703 34.7263 28.1518 34.722 27.7333 34.7177C27.4496 34.7159 27.1658 34.7144 26.882 34.713C26.1864 34.7092 25.4908 34.7035 24.7953 34.6963C24.7576 34.621 24.7199 34.5457 24.6812 34.4681C24.7839 34.4688 24.7839 34.4688 24.8888 34.4696C25.6033 34.4747 26.3177 34.4781 27.0322 34.4806C27.2987 34.4818 27.5652 34.4833 27.8317 34.4853C28.2152 34.4881 28.5987 34.4893 28.9822 34.4904C29.1603 34.4921 29.1603 34.4921 29.342 34.4939C29.9344 34.494 30.3967 34.4541 30.9566 34.2399Z" fill="#848484"/>
<path d="M22.8557 9.82258C22.8933 9.93554 22.931 10.0485 22.9698 10.1649C22.3673 10.7673 21.7649 11.3698 21.1442 11.9905C21.0312 11.9528 20.9183 11.9152 20.8019 11.8764C20.9588 11.6482 20.9588 11.6482 21.1442 11.42C21.2195 11.42 21.2948 11.42 21.3724 11.42C21.4006 11.3494 21.4289 11.2788 21.458 11.206C21.6241 10.9236 21.7578 10.855 22.057 10.7354C22.057 10.6601 22.057 10.5848 22.057 10.5072C22.1323 10.5072 22.2076 10.5072 22.2852 10.5072C22.3228 10.3942 22.3605 10.2813 22.3993 10.1649C22.4746 10.1649 22.5499 10.1649 22.6275 10.1649C22.6275 10.0896 22.6275 10.0143 22.6275 9.93668C22.7028 9.89903 22.7781 9.86137 22.8557 9.82258Z" fill="#434343"/>
<path d="M37.4602 30.1323C37.4979 30.1323 37.5355 30.1323 37.5743 30.1323C37.5737 30.2077 37.5731 30.2832 37.5725 30.3609C37.5701 30.7007 37.5686 31.0405 37.5672 31.3802C37.5662 31.499 37.5653 31.6178 37.5643 31.7401C37.5639 31.853 37.5635 31.9659 37.5632 32.0822C37.5626 32.1868 37.562 32.2913 37.5613 32.3991C37.547 32.6406 37.547 32.6406 37.6884 32.7566C37.7151 32.9675 37.7355 33.1793 37.7526 33.3912C37.7621 33.5067 37.7717 33.6222 37.7815 33.7411C37.7885 33.8304 37.7954 33.9197 37.8025 34.0117C37.8778 34.0117 37.9531 34.0117 38.0307 34.0117C38.0683 34.1623 38.106 34.3129 38.1448 34.4681C37.8025 34.354 37.8025 34.354 37.5743 34.0117C37.3185 33.2513 37.3146 32.4807 37.3247 31.6869C37.3248 31.5747 37.3249 31.4624 37.3249 31.3468C37.33 30.5229 37.33 30.5229 37.4602 30.1323Z" fill="#B3B3B3"/>
<path d="M18.6338 14.957C18.4056 15.1852 18.4056 15.1852 18.0969 15.2112C17.9691 15.21 17.8412 15.2088 17.7095 15.2075C17.5021 15.2064 17.5021 15.2064 17.2905 15.2053C17.1455 15.2034 17.0004 15.2015 16.851 15.1995C16.7051 15.1985 16.5592 15.1975 16.4089 15.1964C16.0476 15.1937 15.6863 15.1899 15.325 15.1852C15.3626 15.1099 15.4003 15.0346 15.4391 14.957C15.8003 14.9343 16.1616 14.9134 16.523 14.8929C16.6242 14.8865 16.7254 14.8801 16.8296 14.8735C17.4498 14.8393 18.0201 14.8603 18.6338 14.957Z" fill="#D2D2D2"/>
<path d="M30.0437 41.8845C30.7111 41.9441 31.2519 42.088 31.8693 42.3409C32.0402 42.4056 32.2114 42.4698 32.3827 42.5335C32.5145 42.5829 32.6463 42.6323 32.7821 42.6832C31.9892 42.9309 31.2055 42.5532 30.4827 42.2268C30.2719 42.1127 30.2719 42.1127 30.0437 41.8845Z" fill="#626262"/>
<path d="M36.4334 4.1176C36.4334 4.1929 36.4334 4.26821 36.4334 4.3458C34.9649 4.45876 34.9649 4.45876 33.4668 4.574C34.1225 3.9183 35.5668 4.08994 36.4334 4.1176Z" fill="#737373"/>
<path d="M28.9028 45.3075C29.4676 45.4205 30.0324 45.5334 30.6143 45.6498C30.6143 45.7251 30.6143 45.8004 30.6143 45.878C30.8779 45.9157 31.1415 45.9533 31.413 45.9921C30.7705 46.2013 30.0468 46.034 29.4421 45.7608C29.2579 45.6551 29.0795 45.5394 28.9028 45.4216C28.9028 45.384 28.9028 45.3463 28.9028 45.3075Z" fill="#7F7F7F"/>
<path d="M33.2386 26.9375C33.367 27.3654 33.367 27.3654 33.2386 27.6221C33.5775 27.5091 33.9164 27.3962 34.2655 27.2798C34.13 27.5009 34.13 27.5009 33.9232 27.7362C33.6237 27.8075 33.6237 27.8075 33.3527 27.8503C33.3151 27.9256 33.2774 28.0009 33.2386 28.0785C33.088 28.0785 32.9374 28.0785 32.7822 28.0785C32.8467 27.6269 32.9886 27.3179 33.2386 26.9375Z" fill="#666666"/>
<path d="M18.6338 15.0711C18.6338 15.1465 18.6338 15.2218 18.6338 15.2993C19.3492 15.2993 20.0646 15.2993 20.8017 15.2993C20.8017 15.337 20.8017 15.3747 20.8017 15.4134C19.8604 15.4134 18.9191 15.4134 17.9492 15.4134C17.9492 15.4888 17.9492 15.5641 17.9492 15.6416C17.8739 15.6416 17.7986 15.6416 17.721 15.6416C17.6834 15.491 17.6457 15.3404 17.6069 15.1852C18.3771 15.0711 18.3771 15.0711 18.6338 15.0711Z" fill="#525252"/>
<path d="M18.1775 15.5276C18.9305 15.5276 19.6836 15.5276 20.4595 15.5276C20.4595 15.5652 20.4595 15.6029 20.4595 15.6417C20.1583 15.6793 19.857 15.717 19.5467 15.7558C19.5467 15.8311 19.5467 15.9064 19.5467 15.9839C18.6909 15.9126 18.6909 15.9126 18.1775 15.5276Z" fill="#EAEAEA"/>
<path d="M42.4806 4.11761C43.5064 4.02602 44.3762 4.35935 45.3331 4.68811C44.9093 4.84507 44.7132 4.74146 44.3062 4.57401C43.9325 4.51772 43.561 4.47405 43.1852 4.43584C42.9874 4.41312 42.7908 4.38025 42.5947 4.34581C42.557 4.2705 42.5194 4.1952 42.4806 4.11761Z" fill="#BBBBBB"/>
<path d="M33.2386 16.2121C33.8473 16.2737 34.2886 16.4855 34.8146 16.7755C34.8922 16.8166 34.9698 16.8577 35.0498 16.9001C35.6195 17.2085 35.6195 17.2085 35.7488 17.4672C35.1607 17.3296 34.6915 17.1125 34.1693 16.8103C33.8656 16.6353 33.5537 16.4797 33.2386 16.3262C33.2386 16.2886 33.2386 16.2509 33.2386 16.2121Z" fill="#969696"/>
<path d="M60.9647 26.7093C61.0024 26.7093 61.04 26.7093 61.0788 26.7093C61.149 27.7161 60.9149 28.808 60.3942 29.6759C60.2801 29.3336 60.2801 29.3336 60.3799 29.1295C60.4435 29.0046 60.4435 29.0046 60.5083 28.8772C60.5532 28.6359 60.5906 28.3932 60.6224 28.1498C60.6888 27.6433 60.7904 27.1901 60.9647 26.7093Z" fill="#505050"/>
<path d="M48.2998 32.8707C48.0738 32.9083 47.8479 32.946 47.6152 32.9848C47.6152 33.0977 47.6152 33.2107 47.6152 33.3271C47.4301 33.3875 47.2446 33.4467 47.0589 33.5054C46.9557 33.5384 46.8524 33.5715 46.746 33.6056C46.4742 33.6694 46.4742 33.6694 46.246 33.5553C46.3105 33.525 46.3751 33.4947 46.4416 33.4635C46.5253 33.4232 46.609 33.3829 46.6952 33.3413C46.7786 33.3016 46.862 33.2619 46.948 33.221C47.1774 33.1139 47.1774 33.1139 47.2729 32.8707C47.6545 32.7572 47.922 32.7448 48.2998 32.8707Z" fill="#747474"/>
<path d="M54.9175 37.5487C54.9928 37.5864 55.0681 37.6241 55.1457 37.6628C54.6944 38.256 54.2234 38.7021 53.5483 39.032C53.473 39.032 53.3977 39.032 53.3201 39.032C53.3201 38.9567 53.3201 38.8814 53.3201 38.8038C53.5089 38.6876 53.6992 38.5736 53.8906 38.4615C53.9282 38.3862 53.9659 38.3109 54.0047 38.2333C54.1944 38.1185 54.3846 38.0045 54.5752 37.891C54.775 37.7105 54.775 37.7105 54.9175 37.5487Z" fill="#A1A1A1"/>
<path d="M52.4073 39.6025C52.4073 39.6778 52.4073 39.7532 52.4073 39.8307C52.1863 39.9805 52.1863 39.9805 51.8368 40.173C51.7529 40.2222 51.6689 40.2713 51.5823 40.3219C51.4922 40.374 51.402 40.426 51.3091 40.4797C51.2229 40.5295 51.1368 40.5794 51.048 40.6308C50.8099 40.7435 50.8099 40.7435 50.4677 40.7435C51.7842 39.6025 51.7842 39.6025 52.4073 39.6025Z" fill="#8B8B8B"/>
<path d="M47.1587 45.9921C46.32 46.3019 45.5444 46.523 44.6486 46.5626C45.0314 46.3074 45.4012 46.2012 45.8395 46.0848C45.9539 46.0523 45.9539 46.0523 46.0706 46.0191C46.4671 45.9126 46.7692 45.8357 47.1587 45.9921Z" fill="#898989"/>
<path d="M38.7153 20.4338C39.0389 20.5956 39.0985 20.835 39.2176 21.163C39.3516 21.7481 39.3104 22.3477 39.2858 22.944C39.2482 22.944 39.2105 22.944 39.1717 22.944C39.1633 22.8017 39.1633 22.8017 39.1548 22.6565C39.1463 22.5325 39.1377 22.4086 39.1289 22.2808C39.121 22.1577 39.1131 22.0346 39.1049 21.9078C39.0791 21.5536 39.0791 21.5536 38.8294 21.2325C38.7845 20.9674 38.7456 20.7011 38.7153 20.4338Z" fill="#7B7B7B"/>
<path d="M34.8359 30.7028C34.9112 30.7404 34.9866 30.7781 35.0641 30.8169C34.8359 31.1592 34.8359 31.1592 34.4936 31.2733C34.3013 31.5011 34.3013 31.5011 34.1513 31.7297C34.0007 31.692 33.8501 31.6544 33.6949 31.6156C34.0715 31.3144 34.448 31.0131 34.8359 30.7028Z" fill="#585858"/>
<path d="M39.9706 36.4078C40.1988 36.5219 40.1988 36.5219 40.3254 36.7741C40.4332 37.1119 40.4575 37.3805 40.4555 37.7342C40.4564 37.8952 40.4564 37.8952 40.4573 38.0595C40.427 38.3474 40.427 38.3474 40.1988 38.6897C40.2014 38.5988 40.2041 38.508 40.2068 38.4143C40.2177 37.7728 40.2237 37.2371 39.9706 36.636C39.9706 36.5606 39.9706 36.4853 39.9706 36.4078Z" fill="#888888"/>
<path d="M60.7366 18.9505C60.906 19.0635 60.906 19.0635 61.0789 19.1787C61.1373 19.5505 61.1373 19.5505 61.1573 19.9917C61.1648 20.1379 61.1723 20.2841 61.18 20.4347C61.1843 20.5474 61.1886 20.6601 61.193 20.7761C61.1553 20.7761 61.1177 20.7761 61.0789 20.7761C60.8411 20.1738 60.7846 19.59 60.7366 18.9505Z" fill="#ADADAD"/>
<path d="M33.2386 4.6881C31.924 5.21207 31.924 5.21207 31.299 5.14449C31.5877 4.85573 31.8103 4.82174 32.2046 4.72375C32.3257 4.69272 32.4467 4.66168 32.5714 4.62971C32.8963 4.574 32.8963 4.574 33.2386 4.6881Z" fill="#868686"/>
<path d="M27.0773 40.6294C27.6875 40.6905 28.145 40.9109 28.6747 41.1999C28.4465 41.314 28.4465 41.314 28.2116 41.2623C28.122 41.2323 28.0324 41.2023 27.9401 41.1714C27.8062 41.1282 27.8062 41.1282 27.6696 41.084C27.409 40.967 27.2638 40.8429 27.0773 40.6294Z" fill="#696969"/>
<path d="M59.4814 38.3474C59.4814 38.7786 59.3677 38.8564 59.0821 39.1675C59.008 39.2492 58.9338 39.3308 58.8575 39.4149C58.7998 39.4768 58.7422 39.5387 58.6828 39.6025C58.5698 39.5649 58.4568 39.5272 58.3405 39.4884C58.7208 39.1081 59.1011 38.7278 59.4814 38.3474Z" fill="#3B3B3B"/>
<path d="M32.7822 42.7973C33.5049 42.7579 34.049 42.8779 34.7219 43.1396C34.7219 43.1773 34.7219 43.2149 34.7219 43.2537C34.047 43.2021 33.4267 43.1216 32.7822 42.9114C32.7822 42.8738 32.7822 42.8361 32.7822 42.7973Z" fill="#6F6F6F"/>
<path d="M37.9166 28.9913C37.879 29.1796 37.8413 29.3678 37.8025 29.5618C37.7649 29.4488 37.7272 29.3359 37.6884 29.2195C37.6084 29.2713 37.5284 29.323 37.446 29.3764C37.1145 29.5637 36.7969 29.6801 36.4333 29.79C36.5924 29.4718 36.8105 29.3911 37.1179 29.2195C37.198 29.1748 37.278 29.1301 37.3604 29.084C37.5743 28.9913 37.5743 28.9913 37.9166 28.9913Z" fill="#707070"/>
<path d="M27.6477 21.5748C27.6853 21.5748 27.723 21.5748 27.7618 21.5748C27.7618 22.2526 27.7618 22.9303 27.7618 23.6286C27.4195 23.1722 27.4195 23.1722 27.448 22.8584C27.4762 22.7361 27.5045 22.6137 27.5336 22.4876C27.5567 22.3215 27.578 22.155 27.5977 21.9884C27.6142 21.8519 27.6307 21.7155 27.6477 21.5748Z" fill="#B9B9B9"/>
<path d="M52.1792 7.76879C52.4616 7.82526 52.4616 7.82526 52.7497 7.88288C52.7873 7.99584 52.825 8.1088 52.8638 8.22518C53.0937 8.30885 53.0937 8.30885 53.3202 8.33928C53.3202 8.41459 53.3202 8.48989 53.3202 8.56748C53.0111 8.54982 52.8106 8.51252 52.5848 8.29338C52.4443 8.12275 52.3112 7.94606 52.1792 7.76879Z" fill="#838383"/>
<path d="M31.2988 5.1445C31.2612 5.25746 31.2235 5.37042 31.1847 5.4868C30.99 5.57416 30.99 5.57416 30.7497 5.62943C30.6713 5.64884 30.593 5.66825 30.5122 5.68826C30.2497 5.71748 30.0659 5.67965 29.8156 5.6009C30.0415 5.56325 30.2674 5.52559 30.5001 5.4868C30.5001 5.4115 30.5001 5.33619 30.5001 5.2586C30.8424 5.1445 30.8424 5.1445 31.2988 5.1445Z" fill="#555555"/>
<path d="M32.554 1.15103C32.1137 1.37119 31.8396 1.50757 31.3417 1.50046C31.2018 1.49891 31.2018 1.49891 31.0591 1.49734C30.9519 1.49535 30.9519 1.49535 30.8425 1.49333C31.4158 1.11116 31.8808 1.13981 32.554 1.15103Z" fill="#747474"/>
<path d="M25.3657 28.7631C25.4401 28.961 25.4401 28.961 25.4798 29.2195C25.3661 29.4637 25.3661 29.4637 25.2016 29.7044C25.1477 29.785 25.0937 29.8656 25.0381 29.9487C24.9956 30.0093 24.9531 30.0699 24.9093 30.1323C24.8348 29.9344 24.8348 29.9344 24.7952 29.6759C24.9088 29.4316 24.9088 29.4316 25.0733 29.191C25.1273 29.1104 25.1812 29.0298 25.2369 28.9467C25.2794 28.8861 25.3219 28.8255 25.3657 28.7631Z" fill="#8D8D8D"/>
<path d="M21.0299 16.6685C21.2182 16.7062 21.4064 16.7439 21.6004 16.7826C21.4875 16.8203 21.3745 16.858 21.2581 16.8967C21.2687 17.1085 21.2687 17.1085 21.2795 17.3246C21.2814 17.6706 21.2703 17.7893 21.087 18.0948C21.0305 18.1513 20.974 18.2077 20.9158 18.2659C20.8405 18.2283 20.7652 18.1906 20.6876 18.1518C20.7441 18.0977 20.8006 18.0436 20.8588 17.9878C21.1103 17.5581 21.058 17.1552 21.0299 16.6685Z" fill="#707070"/>
<path d="M52.8636 4.0035C53.0921 4.03985 53.3203 4.07815 53.5482 4.1176C53.6718 4.13172 53.6718 4.13172 53.7978 4.14613C54.1112 4.2758 54.1969 4.50955 54.3469 4.8022C54.2828 4.76955 54.2187 4.7369 54.1526 4.70325C53.8873 4.57239 53.6192 4.45096 53.3486 4.33154C53.2574 4.29124 53.1662 4.25094 53.0722 4.20942C53.0034 4.17912 52.9346 4.14882 52.8636 4.1176C52.8636 4.07995 52.8636 4.0423 52.8636 4.0035Z" fill="#4A4A4A"/>
<path d="M24.1106 32.7566C24.1483 32.7566 24.1859 32.7566 24.2247 32.7566C24.3904 33.2742 24.4798 33.69 24.4529 34.2399C24.34 34.1646 24.227 34.0893 24.1106 34.0117C24.0772 33.7148 24.0772 33.7148 24.0892 33.3699C24.0923 33.2554 24.0954 33.141 24.0986 33.0231C24.1026 32.9352 24.1065 32.8472 24.1106 32.7566Z" fill="#414141"/>
<path d="M0.263855 16.6685C0.301508 16.6685 0.339161 16.6685 0.377954 16.6685C0.377954 17.1204 0.377954 17.5722 0.377954 18.0377C0.0356561 17.6954 0.0356561 17.6954 0 17.3531C0.0356561 17.0108 0.0356561 17.0108 0.263855 16.6685Z" fill="#AAAAAA"/>
<path d="M49.027 45.3432C49.0882 45.3691 49.1493 45.3949 49.2124 45.4216C48.6986 45.7642 48.2337 45.9144 47.615 45.878C47.7671 45.8019 47.9193 45.7259 48.0714 45.6498C48.1843 45.5863 48.2973 45.5227 48.4137 45.4573C48.756 45.3075 48.756 45.3075 49.027 45.3432Z" fill="#434343"/>
<path d="M33.1245 32.072C33.1622 32.1849 33.1998 32.2979 33.2386 32.4143C33.0389 32.6496 33.0389 32.6496 32.7822 32.8707C32.5255 32.8421 32.5255 32.8421 32.3258 32.7566C32.4827 32.5854 32.4827 32.5854 32.6681 32.4143C32.7434 32.4143 32.8187 32.4143 32.8963 32.4143C32.8963 32.339 32.8963 32.2637 32.8963 32.1861C32.9716 32.1484 33.0469 32.1108 33.1245 32.072Z" fill="#424242"/>
<path d="M52.6354 30.931C52.4937 31.0111 52.3509 31.0891 52.2076 31.1663C52.0884 31.2318 52.0884 31.2318 51.9669 31.2987C51.6814 31.4023 51.5477 31.3741 51.2662 31.2733C51.4545 31.2356 51.6428 31.198 51.8367 31.1592C51.8367 31.0839 51.8367 31.0086 51.8367 30.931C52.1943 30.8118 52.292 30.8244 52.6354 30.931Z" fill="#6B6B6B"/>
<path d="M60.052 30.2464C60.1305 30.4461 60.1305 30.4461 60.1661 30.7028C60.0164 30.9239 60.0164 30.9239 59.8238 31.1592C59.7426 31.3472 59.6652 31.537 59.5956 31.7297C59.4815 31.5015 59.4815 31.5015 59.5662 31.2336C59.6089 31.1314 59.6515 31.0292 59.6955 30.9239C59.7375 30.8213 59.7796 30.7188 59.823 30.6132C59.9379 30.3605 59.9379 30.3605 60.052 30.2464Z" fill="#828282"/>
<path d="M48.9844 21.5748C49.2174 21.7679 49.3173 21.8757 49.3851 22.1752C49.3917 22.2665 49.3983 22.3579 49.4051 22.452C49.4126 22.5442 49.4201 22.6364 49.4278 22.7314C49.4321 22.8016 49.4364 22.8717 49.4408 22.944C49.0371 22.5228 49.031 22.1346 48.9844 21.5748Z" fill="#838383"/>
<path d="M46.0177 5.03041C46.1818 5.04039 46.3458 5.05274 46.5098 5.06607C46.6011 5.07269 46.6924 5.07931 46.7865 5.08613C47.086 5.15388 47.1939 5.2538 47.3869 5.48681C46.8305 5.52655 46.5003 5.42027 46.0177 5.14451C46.0177 5.10686 46.0177 5.06921 46.0177 5.03041Z" fill="#5C5C5C"/>
<path d="M21.3723 6.39959C21.2077 6.78364 20.992 7.02833 20.6877 7.31239C20.6124 7.27473 20.5371 7.23708 20.4595 7.19829C20.9693 6.39959 20.9693 6.39959 21.3723 6.39959Z" fill="#CACACA"/>
<path d="M53.5483 17.1249C54.096 17.5041 54.096 17.5041 54.2115 17.8951C54.2186 17.9798 54.2257 18.0645 54.2329 18.1518C54.12 18.0765 54.007 18.0012 53.8906 17.9236C53.8906 17.8483 53.8906 17.773 53.8906 17.6954C53.7777 17.6578 53.6647 17.6201 53.5483 17.5813C53.5483 17.4307 53.5483 17.2801 53.5483 17.1249Z" fill="#878787"/>
<path d="M19.6608 12.9033C19.8114 12.9033 19.9621 12.9033 20.1172 12.9033C20.0796 13.0915 20.0419 13.2798 20.0031 13.4738C19.9278 13.4738 19.8525 13.4738 19.7749 13.4738C19.7373 13.5867 19.6996 13.6997 19.6608 13.8161C19.4976 13.4895 19.5924 13.2531 19.6608 12.9033Z" fill="#949494"/>
<path d="M51.7227 3.31891C52.1205 3.44549 52.4957 3.57716 52.8637 3.7753C52.8637 3.85061 52.8637 3.92592 52.8637 4.0035C52.5248 3.94702 52.5248 3.94702 52.1791 3.8894C52.1791 3.8141 52.1791 3.73879 52.1791 3.66121C52.0284 3.5859 51.8778 3.51059 51.7227 3.43301C51.7227 3.39535 51.7227 3.3577 51.7227 3.31891Z" fill="#8F8F8F"/>
<path d="M53.4342 30.2464C53.5095 30.284 53.5848 30.3217 53.6624 30.3605C53.4371 30.6483 53.3238 30.702 52.9564 30.7812C52.7976 30.7989 52.7976 30.7989 52.6355 30.8169C52.7861 30.7416 52.9367 30.6663 53.0919 30.5887C53.0919 30.5134 53.0919 30.4381 53.0919 30.3605C53.2049 30.3228 53.3178 30.2852 53.4342 30.2464Z" fill="#585858"/>
<path d="M24.453 8.45339C24.5283 8.49104 24.6036 8.52869 24.6812 8.56749C24.4392 8.93042 24.267 9.05985 23.8825 9.25208C23.8072 9.21443 23.7319 9.17678 23.6543 9.13798C23.9179 8.91207 24.1814 8.68615 24.453 8.45339Z" fill="#6C6C6C"/>
<path d="M50.0112 40.8576C50.0865 40.8953 50.1618 40.9329 50.2394 40.9717C50.0135 41.0847 50.0135 41.0847 49.783 41.1999C49.783 41.2752 49.783 41.3505 49.783 41.4281C49.5948 41.4281 49.4065 41.4281 49.2125 41.4281C49.4539 41.1626 49.6746 40.9879 50.0112 40.8576Z" fill="#B0B0B0"/>
<path d="M37.6886 35.7232C37.6886 35.7985 37.6886 35.8738 37.6886 35.9514C37.5025 36.072 37.3117 36.1856 37.1181 36.2937C36.9486 36.4066 36.9486 36.4066 36.7758 36.5219C36.7972 36.315 36.7972 36.315 36.8899 36.0655C37.3666 35.7232 37.3666 35.7232 37.6886 35.7232Z" fill="#E1E1E1"/>
<path d="M49.2126 25.226C49.2879 25.226 49.3632 25.226 49.4408 25.226C49.4194 25.4899 49.4194 25.4899 49.3267 25.7965C49.0343 26.0033 49.0343 26.0033 48.7562 26.1388C48.8845 25.7997 49.0099 25.5301 49.2126 25.226Z" fill="#949494"/>
<path d="M27.7618 23.8568C27.7995 23.8568 27.8371 23.8568 27.8759 23.8568C27.9044 24.0205 27.93 24.1846 27.9543 24.3489C27.9689 24.4402 27.9835 24.5316 27.9985 24.6257C27.99 24.8837 27.99 24.8837 27.6477 25.226C27.6854 24.7742 27.723 24.3223 27.7618 23.8568Z" fill="#B7B7B7"/>
<path d="M38.8296 23.2863C38.9049 23.2863 38.9802 23.2863 39.0578 23.2863C39.0955 23.3993 39.1331 23.5122 39.1719 23.6286C38.833 23.8545 38.833 23.8545 38.4873 24.085C38.7012 23.543 38.7012 23.543 38.8296 23.2863Z" fill="#AEAEAE"/>
<path d="M77.0198 29.573L73.0958 16.415H75.4898L77.5778 23.363C77.7758 24.083 77.9738 24.821 78.1718 25.973C78.3878 24.803 78.5858 24.119 78.8198 23.363L80.8898 16.415H83.4278L85.4618 23.363C85.6778 24.101 85.8758 24.857 86.0918 25.973C86.3438 24.749 86.5238 24.047 86.7218 23.381L88.8458 16.415H91.1858L87.1898 29.573H84.9578L82.1498 19.997L79.2878 29.573H77.0198ZM93.9027 29.807C92.0127 29.807 90.8607 28.709 90.8607 27.035C90.8607 25.397 92.0487 24.371 94.1547 24.209L96.8187 24.011V23.813C96.8187 22.607 96.0987 22.121 94.9827 22.121C93.6867 22.121 92.9667 22.661 92.9667 23.597H91.0947C91.0947 21.671 92.6787 20.411 95.0907 20.411C97.4847 20.411 98.9607 21.707 98.9607 24.173V29.573H97.0347L96.8727 28.259C96.4947 29.177 95.2887 29.807 93.9027 29.807ZM94.6227 28.151C95.9727 28.151 96.8367 27.341 96.8367 25.973V25.505L94.9827 25.649C93.6147 25.775 93.0927 26.225 93.0927 26.945C93.0927 27.755 93.6327 28.151 94.6227 28.151ZM103.314 29.573H101.118V20.681H103.152L103.332 21.833C103.89 20.933 104.97 20.411 106.176 20.411C108.408 20.411 109.56 21.797 109.56 24.101V29.573H107.364V24.623C107.364 23.129 106.626 22.409 105.492 22.409C104.142 22.409 103.314 23.345 103.314 24.785V29.573ZM113.914 29.573H111.718V20.681H113.734L113.914 21.725C114.364 20.987 115.264 20.411 116.542 20.411C117.892 20.411 118.828 21.077 119.296 22.103C119.746 21.077 120.79 20.411 122.14 20.411C124.3 20.411 125.488 21.707 125.488 23.759V29.573H123.31V24.335C123.31 23.057 122.626 22.391 121.582 22.391C120.52 22.391 119.71 23.075 119.71 24.533V29.573H117.514V24.317C117.514 23.075 116.848 22.409 115.804 22.409C114.76 22.409 113.914 23.093 113.914 24.533V29.573ZM130.289 29.807C128.399 29.807 127.247 28.709 127.247 27.035C127.247 25.397 128.435 24.371 130.541 24.209L133.205 24.011V23.813C133.205 22.607 132.485 22.121 131.369 22.121C130.073 22.121 129.353 22.661 129.353 23.597H127.481C127.481 21.671 129.065 20.411 131.477 20.411C133.871 20.411 135.347 21.707 135.347 24.173V29.573H133.421L133.259 28.259C132.881 29.177 131.675 29.807 130.289 29.807ZM131.009 28.151C132.359 28.151 133.223 27.341 133.223 25.973V25.505L131.369 25.649C130.001 25.775 129.479 26.225 129.479 26.945C129.479 27.755 130.019 28.151 131.009 28.151ZM136.983 25.109C136.983 22.355 138.801 20.411 141.429 20.411C143.859 20.411 145.515 21.761 145.749 23.903H143.553C143.301 22.895 142.563 22.373 141.519 22.373C140.115 22.373 139.179 23.435 139.179 25.109C139.179 26.783 140.043 27.827 141.447 27.827C142.545 27.827 143.319 27.287 143.553 26.315H145.767C145.497 28.385 143.769 29.807 141.447 29.807C138.747 29.807 136.983 27.935 136.983 25.109Z" fill="#0E1628"/>
</svg>
