<svg width="60" height="37" viewBox="0 0 60 37" fill="none" xmlns="http://www.w3.org/2000/svg">
<g clip-path="url(#clip0_14_185)">
<g clip-path="url(#clip1_14_185)">
<path d="M44.9354 17.5536C45.3924 18.2871 44.865 19.2372 44.0007 19.2372H26.2898C25.9095 19.2372 25.5562 19.041 25.3551 18.7182L15.3653 2.68357C14.9083 1.95003 15.4357 1 16.3 1H34.0109C34.3912 1 34.7445 1.19617 34.9456 1.51892L44.9354 17.5536Z" fill="#0E1628" stroke="#0E1628" stroke-width="0.825936" stroke-linecap="round" stroke-linejoin="round"/>
<path d="M22.8512 18.6101H2.03906V35.3482C2.03906 36.2605 2.77863 37.0001 3.69093 37.0001H22.8512V18.6101Z" fill="#ECF0F7"/>
<path d="M43.6637 35.3481C43.6637 36.2604 42.9242 37 42.0119 37H22.8516V18.6098L33.4317 1.62769L43.6637 18.6098V35.3481Z" fill="#D5DFF0"/>
<path d="M1.04864 17.5537C0.591724 18.2872 1.11917 19.2372 1.98338 19.2372H23.2117C23.592 19.2372 23.9454 19.041 24.1465 18.7182L34.1344 2.68349C34.5913 1.94995 34.0639 1 33.1997 1H11.9713C11.591 1 11.2376 1.19621 11.0366 1.519L1.04864 17.5537Z" fill="#0E1628" stroke="#0E1628" stroke-width="0.825936" stroke-linecap="round" stroke-linejoin="round"/>
<path d="M44.3199 27.4906C49.6656 27.4906 53.9991 23.157 53.9991 17.8113C53.9991 12.4656 49.6656 8.13208 44.3199 8.13208C38.9742 8.13208 34.6407 12.4656 34.6407 17.8113C34.6407 23.157 38.9742 27.4906 44.3199 27.4906Z" fill="#3455FF"/>
<path d="M43.8086 12.2075V18.3207H49.9218" stroke="white" stroke-width="1.5" stroke-linecap="round" stroke-linejoin="round"/>
</g>
</g>
<defs>
<clipPath id="clip0_14_185">
<rect width="54" height="37" fill="white"/>
</clipPath>
<clipPath id="clip1_14_185">
<rect width="54" height="37" fill="white"/>
</clipPath>
</defs>
</svg>
